<?xml version="1.0" encoding="UTF-8" standalone="no"?>
<!DOCTYPE svg PUBLIC "-//W3C//DTD SVG 1.1//EN"
 "http://www.w3.org/Graphics/SVG/1.1/DTD/svg11.dtd">
<!-- Generated by graphviz version 2.40.1 (20161225.0304)
 -->
<!-- Title: G Pages: 1 -->
<svg width="355pt" height="1337pt"
 viewBox="0.00 0.00 355.23 1337.00" xmlns="http://www.w3.org/2000/svg" xmlns:xlink="http://www.w3.org/1999/xlink">
<g id="graph0" class="graph" transform="scale(1 1) rotate(0) translate(4 1333)">
<title>G</title>
<polygon fill="#ffffff" stroke="transparent" points="-4,4 -4,-1333 351.2344,-1333 351.2344,4 -4,4"/>
<g id="clust1" class="cluster">
<title>cluster_Global</title>
<path fill="none" stroke="#c0c0c0" d="M20,-8C20,-8 327.2344,-8 327.2344,-8 333.2344,-8 339.2344,-14 339.2344,-20 339.2344,-20 339.2344,-1309 339.2344,-1309 339.2344,-1315 333.2344,-1321 327.2344,-1321 327.2344,-1321 20,-1321 20,-1321 14,-1321 8,-1315 8,-1309 8,-1309 8,-20 8,-20 8,-14 14,-8 20,-8"/>
<text text-anchor="middle" x="173.6172" y="-1308.2" font-family="Times,serif" font-size="11.00" fill="#c0c0c0">Global</text>
</g>
<!-- \\Controleur_Importation -->
<g id="node1" class="node">
<title>\\Controleur_Importation</title>
<polygon fill="none" stroke="#000000" points="331.3463,-268 169.8988,-268 169.8988,-232 331.3463,-232 331.3463,-268"/>
<text text-anchor="middle" x="250.6226" y="-246.7" font-family="Courier,monospace" font-size="11.00" fill="#000000">Controleur_Importation</text>
</g>
<!-- \\Controleur -->
<g id="node14" class="node">
<title>\\Controleur</title>
<polygon fill="none" stroke="#000000" points="98.0161,-268 15.9946,-268 15.9946,-232 98.0161,-232 98.0161,-268"/>
<text text-anchor="start" x="24" y="-252.2" font-family="Courier,monospace" font-size="11.00" fill="#000000">«abstract»</text>
<text text-anchor="start" x="24" y="-241.2" font-family="Courier,monospace" font-size="11.00" fill="#000000">Controleur</text>
</g>
<!-- \\Controleur_Importation&#45;&gt;\\Controleur -->
<g id="edge1" class="edge">
<title>\\Controleur_Importation&#45;&gt;\\Controleur</title>
<path fill="none" stroke="#000000" d="M169.9135,-250C149.0767,-250 127.2161,-250 108.3401,-250"/>
<polygon fill="none" stroke="#000000" points="108.186,-246.5001 98.186,-250 108.1859,-253.5001 108.186,-246.5001"/>
</g>
<!-- \\Classe_total -->
<g id="node2" class="node">
<title>\\Classe_total</title>
<polygon fill="none" stroke="#000000" points="298.3357,-1240 202.9094,-1240 202.9094,-1204 298.3357,-1204 298.3357,-1240"/>
<text text-anchor="middle" x="250.6226" y="-1218.7" font-family="Courier,monospace" font-size="11.00" fill="#000000">Classe_total</text>
</g>
<!-- \\BaseDeDonnees -->
<g id="node3" class="node">
<title>\\BaseDeDonnees</title>
<polygon fill="none" stroke="#000000" points="301.4367,-1186 199.8084,-1186 199.8084,-1150 301.4367,-1150 301.4367,-1186"/>
<text text-anchor="middle" x="250.6226" y="-1164.7" font-family="Courier,monospace" font-size="11.00" fill="#000000">BaseDeDonnees</text>
</g>
<!-- \\Modele_Bouteille_SAQ -->
<g id="node4" class="node">
<title>\\Modele_Bouteille_SAQ</title>
<polygon fill="none" stroke="#000000" points="324.644,-700 176.6011,-700 176.6011,-664 324.644,-664 324.644,-700"/>
<text text-anchor="middle" x="250.6226" y="-678.7" font-family="Courier,monospace" font-size="11.00" fill="#000000">Modele_Bouteille_SAQ</text>
</g>
<!-- \\Modele -->
<g id="node21" class="node">
<title>\\Modele</title>
<polygon fill="none" stroke="#000000" points="98.0161,-700 15.9946,-700 15.9946,-664 98.0161,-664 98.0161,-700"/>
<text text-anchor="start" x="24" y="-684.2" font-family="Courier,monospace" font-size="11.00" fill="#000000">«abstract»</text>
<text text-anchor="start" x="37.2021" y="-673.2" font-family="Courier,monospace" font-size="11.00" fill="#000000">Modele</text>
</g>
<!-- \\Modele_Bouteille_SAQ&#45;&gt;\\Modele -->
<g id="edge2" class="edge">
<title>\\Modele_Bouteille_SAQ&#45;&gt;\\Modele</title>
<path fill="none" stroke="#000000" d="M176.5954,-682C153.8552,-682 129.337,-682 108.4563,-682"/>
<polygon fill="none" stroke="#000000" points="108.2106,-678.5001 98.2105,-682 108.2105,-685.5001 108.2106,-678.5001"/>
</g>
<!-- \\Routeur -->
<g id="node5" class="node">
<title>\\Routeur</title>
<polygon fill="none" stroke="#000000" points="281.8304,-1078 219.4147,-1078 219.4147,-1042 281.8304,-1042 281.8304,-1078"/>
<text text-anchor="middle" x="250.6226" y="-1056.7" font-family="Courier,monospace" font-size="11.00" fill="#000000">Routeur</text>
</g>
<!-- \\Classe_Bouteille -->
<g id="node6" class="node">
<title>\\Classe_Bouteille</title>
<polygon fill="none" stroke="#000000" points="311.2403,-1024 190.0048,-1024 190.0048,-988 311.2403,-988 311.2403,-1024"/>
<text text-anchor="middle" x="250.6226" y="-1002.7" font-family="Courier,monospace" font-size="11.00" fill="#000000">Classe_Bouteille</text>
</g>
<!-- \\Controleur_Cellier -->
<g id="node7" class="node">
<title>\\Controleur_Cellier</title>
<polygon fill="none" stroke="#000000" points="317.942,-106 183.3031,-106 183.3031,-70 317.942,-70 317.942,-106"/>
<text text-anchor="middle" x="250.6226" y="-84.7" font-family="Courier,monospace" font-size="11.00" fill="#000000">Controleur_Cellier</text>
</g>
<!-- \\Controleur_Cellier&#45;&gt;\\Controleur -->
<g id="edge3" class="edge">
<title>\\Controleur_Cellier&#45;&gt;\\Controleur</title>
<path fill="none" stroke="#000000" d="M185.7169,-106.1244C180.2095,-108.7277 174.8882,-111.6737 170.0107,-115 127.6744,-143.8722 92.3224,-192.8291 72.9648,-223.1801"/>
<polygon fill="none" stroke="#000000" points="69.8103,-221.6237 67.4807,-231.9593 75.7472,-225.3323 69.8103,-221.6237"/>
</g>
<!-- \\Classe_Cellier -->
<g id="node8" class="node">
<title>\\Classe_Cellier</title>
<polygon fill="none" stroke="#000000" points="305.0384,-916 196.2067,-916 196.2067,-880 305.0384,-880 305.0384,-916"/>
<text text-anchor="middle" x="250.6226" y="-894.7" font-family="Courier,monospace" font-size="11.00" fill="#000000">Classe_Cellier</text>
</g>
<!-- \\Classe_Bouteille_SAQ -->
<g id="node9" class="node">
<title>\\Classe_Bouteille_SAQ</title>
<polygon fill="none" stroke="#000000" points="324.644,-862 176.6011,-862 176.6011,-826 324.644,-826 324.644,-862"/>
<text text-anchor="middle" x="250.6226" y="-840.7" font-family="Courier,monospace" font-size="11.00" fill="#000000">Classe_Bouteille_SAQ</text>
</g>
<!-- \\Log -->
<g id="node10" class="node">
<title>\\Log</title>
<polygon fill="none" stroke="#000000" points="277.6226,-808 223.6226,-808 223.6226,-772 277.6226,-772 277.6226,-808"/>
<text text-anchor="middle" x="250.6226" y="-786.7" font-family="Courier,monospace" font-size="11.00" fill="#000000">Log</text>
</g>
<!-- \\Classe_Affichage -->
<g id="node11" class="node">
<title>\\Classe_Affichage</title>
<polygon fill="none" stroke="#000000" points="311.2403,-754 190.0048,-754 190.0048,-718 311.2403,-718 311.2403,-754"/>
<text text-anchor="middle" x="250.6226" y="-732.7" font-family="Courier,monospace" font-size="11.00" fill="#000000">Classe_Affichage</text>
</g>
<!-- \\Modele_Liste -->
<g id="node12" class="node">
<title>\\Modele_Liste</title>
<polygon fill="none" stroke="#000000" points="298.3357,-646 202.9094,-646 202.9094,-610 298.3357,-610 298.3357,-646"/>
<text text-anchor="middle" x="250.6226" y="-624.7" font-family="Courier,monospace" font-size="11.00" fill="#000000">Modele_Liste</text>
</g>
<!-- \\Modele_Liste&#45;&gt;\\Modele -->
<g id="edge4" class="edge">
<title>\\Modele_Liste&#45;&gt;\\Modele</title>
<path fill="none" stroke="#000000" d="M202.7621,-641.3483C173.887,-649.4016 137.1276,-659.6538 107.7489,-667.8476"/>
<polygon fill="none" stroke="#000000" points="106.7827,-664.4834 98.0907,-670.5413 108.6633,-671.2261 106.7827,-664.4834"/>
</g>
<!-- \\Modele_Cellier -->
<g id="node13" class="node">
<title>\\Modele_Cellier</title>
<polygon fill="none" stroke="#000000" points="305.0384,-592 196.2067,-592 196.2067,-556 305.0384,-556 305.0384,-592"/>
<text text-anchor="middle" x="250.6226" y="-570.7" font-family="Courier,monospace" font-size="11.00" fill="#000000">Modele_Cellier</text>
</g>
<!-- \\Modele_Cellier&#45;&gt;\\Modele -->
<g id="edge5" class="edge">
<title>\\Modele_Cellier&#45;&gt;\\Modele</title>
<path fill="none" stroke="#000000" d="M196.3713,-589.6829C187.3765,-592.9835 178.2901,-596.7678 170.0107,-601 139.5175,-616.5874 108.1148,-639.7758 86.1763,-657.3528"/>
<polygon fill="none" stroke="#000000" points="83.8095,-654.7661 78.2532,-663.7871 88.2223,-660.2 83.8095,-654.7661"/>
</g>
<!-- \\Modele_Bouteille -->
<g id="node15" class="node">
<title>\\Modele_Bouteille</title>
<polygon fill="none" stroke="#000000" points="311.2403,-538 190.0048,-538 190.0048,-502 311.2403,-502 311.2403,-538"/>
<text text-anchor="middle" x="250.6226" y="-516.7" font-family="Courier,monospace" font-size="11.00" fill="#000000">Modele_Bouteille</text>
</g>
<!-- \\Modele_Bouteille&#45;&gt;\\Modele -->
<g id="edge6" class="edge">
<title>\\Modele_Bouteille&#45;&gt;\\Modele</title>
<path fill="none" stroke="#000000" d="M189.8783,-536.2355C182.8979,-539.2785 176.1076,-542.8421 170.0107,-547 127.6744,-575.8722 92.3224,-624.8291 72.9648,-655.1801"/>
<polygon fill="none" stroke="#000000" points="69.8103,-653.6237 67.4807,-663.9593 75.7472,-657.3323 69.8103,-653.6237"/>
</g>
<!-- \\Controleur_Login -->
<g id="node16" class="node">
<title>\\Controleur_Login</title>
<polygon fill="none" stroke="#000000" points="311.2403,-322 190.0048,-322 190.0048,-286 311.2403,-286 311.2403,-322"/>
<text text-anchor="middle" x="250.6226" y="-300.7" font-family="Courier,monospace" font-size="11.00" fill="#000000">Controleur_Login</text>
</g>
<!-- \\Controleur_Login&#45;&gt;\\Controleur -->
<g id="edge7" class="edge">
<title>\\Controleur_Login&#45;&gt;\\Controleur</title>
<path fill="none" stroke="#000000" d="M189.8921,-287.0622C163.5556,-279.7169 133.062,-271.2123 107.9334,-264.2039"/>
<polygon fill="none" stroke="#000000" points="108.805,-260.8134 98.2323,-261.4982 106.9244,-267.5561 108.805,-260.8134"/>
</g>
<!-- \\Modele_Affichage -->
<g id="node17" class="node">
<title>\\Modele_Affichage</title>
<polygon fill="none" stroke="#000000" points="311.2403,-1294 190.0048,-1294 190.0048,-1258 311.2403,-1258 311.2403,-1294"/>
<text text-anchor="middle" x="250.6226" y="-1272.7" font-family="Courier,monospace" font-size="11.00" fill="#000000">Modele_Affichage</text>
</g>
<!-- \\Modele_Affichage&#45;&gt;\\Modele -->
<g id="edge8" class="edge">
<title>\\Modele_Affichage&#45;&gt;\\Modele</title>
<path fill="none" stroke="#000000" d="M189.8991,-1263.6669C182.4047,-1259.9826 175.4741,-1255.202 170.0107,-1249 97.6734,-1166.8828 66.5785,-813.2852 58.9498,-710.2662"/>
<polygon fill="none" stroke="#000000" points="62.4217,-709.7494 58.2085,-700.0283 55.4399,-710.255 62.4217,-709.7494"/>
</g>
<!-- \\Classe_Usager -->
<g id="node18" class="node">
<title>\\Classe_Usager</title>
<polygon fill="none" stroke="#000000" points="301.4367,-430 199.8084,-430 199.8084,-394 301.4367,-394 301.4367,-430"/>
<text text-anchor="middle" x="250.6226" y="-408.7" font-family="Courier,monospace" font-size="11.00" fill="#000000">Classe_Usager</text>
</g>
<!-- \\JSON -->
<g id="node19" class="node">
<title>\\JSON</title>
<polygon fill="none" stroke="#000000" points="277.6226,-376 223.6226,-376 223.6226,-340 277.6226,-340 277.6226,-376"/>
<text text-anchor="middle" x="250.6226" y="-354.7" font-family="Courier,monospace" font-size="11.00" fill="#000000">JSON</text>
</g>
<!-- \\Controleur_Liste_Achat -->
<g id="node20" class="node">
<title>\\Controleur_Liste_Achat</title>
<polygon fill="none" stroke="#000000" points="331.3463,-484 169.8988,-484 169.8988,-448 331.3463,-448 331.3463,-484"/>
<text text-anchor="middle" x="250.6226" y="-462.7" font-family="Courier,monospace" font-size="11.00" fill="#000000">Controleur_Liste_Achat</text>
</g>
<!-- \\Controleur_Liste_Achat&#45;&gt;\\Controleur -->
<g id="edge9" class="edge">
<title>\\Controleur_Liste_Achat&#45;&gt;\\Controleur</title>
<path fill="none" stroke="#000000" d="M183.5165,-447.8314C178.7199,-445.2589 174.1504,-442.3309 170.0107,-439 116.0545,-395.5855 81.875,-318.9773 66.5004,-277.8901"/>
<polygon fill="none" stroke="#000000" points="69.7024,-276.4537 62.9962,-268.2514 63.1236,-278.8454 69.7024,-276.4537"/>
</g>
<!-- \\Modele_Usager -->
<g id="node22" class="node">
<title>\\Modele_Usager</title>
<polygon fill="none" stroke="#000000" points="301.4367,-1132 199.8084,-1132 199.8084,-1096 301.4367,-1096 301.4367,-1132"/>
<text text-anchor="middle" x="250.6226" y="-1110.7" font-family="Courier,monospace" font-size="11.00" fill="#000000">Modele_Usager</text>
</g>
<!-- \\Modele_Usager&#45;&gt;\\Modele -->
<g id="edge10" class="edge">
<title>\\Modele_Usager&#45;&gt;\\Modele</title>
<path fill="none" stroke="#000000" d="M199.4023,-1105.0965C188.5217,-1101.1122 177.9405,-1095.3456 170.0107,-1087 117.0228,-1031.2333 74.6881,-792.7805 61.3807,-710.2469"/>
<polygon fill="none" stroke="#000000" points="64.8292,-709.646 59.7997,-700.3211 57.9164,-710.7472 64.8292,-709.646"/>
</g>
<!-- \\Controleur_Bouteille -->
<g id="node23" class="node">
<title>\\Controleur_Bouteille</title>
<polygon fill="none" stroke="#000000" points="324.644,-214 176.6011,-214 176.6011,-178 324.644,-178 324.644,-214"/>
<text text-anchor="middle" x="250.6226" y="-192.7" font-family="Courier,monospace" font-size="11.00" fill="#000000">Controleur_Bouteille</text>
</g>
<!-- \\Controleur_Bouteille&#45;&gt;\\Controleur -->
<g id="edge11" class="edge">
<title>\\Controleur_Bouteille&#45;&gt;\\Controleur</title>
<path fill="none" stroke="#000000" d="M185.8817,-214.0563C160.5832,-221.112 131.991,-229.0864 108.1766,-235.7283"/>
<polygon fill="none" stroke="#000000" points="106.9786,-232.4288 98.2865,-238.4867 108.8592,-239.1714 106.9786,-232.4288"/>
</g>
<!-- \\Classe_Liste -->
<g id="node24" class="node">
<title>\\Classe_Liste</title>
<polygon fill="none" stroke="#000000" points="298.3357,-160 202.9094,-160 202.9094,-124 298.3357,-124 298.3357,-160"/>
<text text-anchor="middle" x="250.6226" y="-138.7" font-family="Courier,monospace" font-size="11.00" fill="#000000">Classe_Liste</text>
</g>
<!-- \\Modele_Type -->
<g id="node25" class="node">
<title>\\Modele_Type</title>
<polygon fill="none" stroke="#000000" points="294.7352,-970 206.5099,-970 206.5099,-934 294.7352,-934 294.7352,-970"/>
<text text-anchor="middle" x="250.6226" y="-948.7" font-family="Courier,monospace" font-size="11.00" fill="#000000">Modele_Type</text>
</g>
<!-- \\Modele_Type&#45;&gt;\\Modele -->
<g id="edge12" class="edge">
<title>\\Modele_Type&#45;&gt;\\Modele</title>
<path fill="none" stroke="#000000" d="M206.2259,-944.0954C193.3935,-940.0805 180.135,-934.0485 170.0107,-925 103.9419,-865.9512 73.6325,-760.2681 62.4428,-710.0205"/>
<polygon fill="none" stroke="#000000" points="65.8517,-709.2242 60.3393,-700.1764 59.0063,-710.687 65.8517,-709.2242"/>
</g>
<!-- \\Classe_Type -->
<g id="node26" class="node">
<title>\\Classe_Type</title>
<polygon fill="none" stroke="#000000" points="294.7352,-52 206.5099,-52 206.5099,-16 294.7352,-16 294.7352,-52"/>
<text text-anchor="middle" x="250.6226" y="-30.7" font-family="Courier,monospace" font-size="11.00" fill="#000000">Classe_Type</text>
</g>
</g>
</svg>
