<?xml version="1.0" encoding="UTF-8" standalone="no"?>
<!DOCTYPE svg PUBLIC "-//W3C//DTD SVG 1.1//EN"
 "http://www.w3.org/Graphics/SVG/1.1/DTD/svg11.dtd">
<!-- Generated by graphviz version 2.40.1 (20161225.0304)
 -->
<!-- Title: G Pages: 1 -->
<svg width="355pt" height="1391pt"
 viewBox="0.00 0.00 355.23 1391.00" xmlns="http://www.w3.org/2000/svg" xmlns:xlink="http://www.w3.org/1999/xlink">
<g id="graph0" class="graph" transform="scale(1 1) rotate(0) translate(4 1387)">
<title>G</title>
<polygon fill="#ffffff" stroke="transparent" points="-4,4 -4,-1387 351.2344,-1387 351.2344,4 -4,4"/>
<g id="clust1" class="cluster">
<title>cluster_Global</title>
<path fill="none" stroke="#c0c0c0" d="M20,-8C20,-8 327.2344,-8 327.2344,-8 333.2344,-8 339.2344,-14 339.2344,-20 339.2344,-20 339.2344,-1363 339.2344,-1363 339.2344,-1369 333.2344,-1375 327.2344,-1375 327.2344,-1375 20,-1375 20,-1375 14,-1375 8,-1369 8,-1363 8,-1363 8,-20 8,-20 8,-14 14,-8 20,-8"/>
<text text-anchor="middle" x="173.6172" y="-1362.2" font-family="Times,serif" font-size="11.00" fill="#c0c0c0">Global</text>
</g>
<!-- \\Controleur_Importation -->
<g id="node1" class="node">
<title>\\Controleur_Importation</title>
<polygon fill="none" stroke="#000000" points="331.3463,-214 169.8988,-214 169.8988,-178 331.3463,-178 331.3463,-214"/>
<text text-anchor="middle" x="250.6226" y="-192.7" font-family="Courier,monospace" font-size="11.00" fill="#000000">Controleur_Importation</text>
</g>
<!-- \\Controleur -->
<g id="node15" class="node">
<title>\\Controleur</title>
<polygon fill="none" stroke="#000000" points="98.0161,-268 15.9946,-268 15.9946,-232 98.0161,-232 98.0161,-268"/>
<text text-anchor="start" x="24" y="-252.2" font-family="Courier,monospace" font-size="11.00" fill="#000000">«abstract»</text>
<text text-anchor="start" x="24" y="-241.2" font-family="Courier,monospace" font-size="11.00" fill="#000000">Controleur</text>
</g>
<!-- \\Controleur_Importation&#45;&gt;\\Controleur -->
<g id="edge1" class="edge">
<title>\\Controleur_Importation&#45;&gt;\\Controleur</title>
<path fill="none" stroke="#000000" d="M185.8817,-214.0563C160.5832,-221.112 131.991,-229.0864 108.1766,-235.7283"/>
<polygon fill="none" stroke="#000000" points="106.9786,-232.4288 98.2865,-238.4867 108.8592,-239.1714 106.9786,-232.4288"/>
</g>
<!-- \\Classe_total -->
<g id="node2" class="node">
<title>\\Classe_total</title>
<polygon fill="none" stroke="#000000" points="298.3357,-1294 202.9094,-1294 202.9094,-1258 298.3357,-1258 298.3357,-1294"/>
<text text-anchor="middle" x="250.6226" y="-1272.7" font-family="Courier,monospace" font-size="11.00" fill="#000000">Classe_total</text>
</g>
<!-- \\BaseDeDonnees -->
<g id="node3" class="node">
<title>\\BaseDeDonnees</title>
<polygon fill="none" stroke="#000000" points="301.4367,-1240 199.8084,-1240 199.8084,-1204 301.4367,-1204 301.4367,-1240"/>
<text text-anchor="middle" x="250.6226" y="-1218.7" font-family="Courier,monospace" font-size="11.00" fill="#000000">BaseDeDonnees</text>
</g>
<!-- \\Modele_Bouteille_SAQ -->
<g id="node4" class="node">
<title>\\Modele_Bouteille_SAQ</title>
<polygon fill="none" stroke="#000000" points="324.644,-646 176.6011,-646 176.6011,-610 324.644,-610 324.644,-646"/>
<text text-anchor="middle" x="250.6226" y="-624.7" font-family="Courier,monospace" font-size="11.00" fill="#000000">Modele_Bouteille_SAQ</text>
</g>
<!-- \\Modele -->
<g id="node22" class="node">
<title>\\Modele</title>
<polygon fill="none" stroke="#000000" points="98.0161,-700 15.9946,-700 15.9946,-664 98.0161,-664 98.0161,-700"/>
<text text-anchor="start" x="24" y="-684.2" font-family="Courier,monospace" font-size="11.00" fill="#000000">«abstract»</text>
<text text-anchor="start" x="37.2021" y="-673.2" font-family="Courier,monospace" font-size="11.00" fill="#000000">Modele</text>
</g>
<!-- \\Modele_Bouteille_SAQ&#45;&gt;\\Modele -->
<g id="edge2" class="edge">
<title>\\Modele_Bouteille_SAQ&#45;&gt;\\Modele</title>
<path fill="none" stroke="#000000" d="M185.8817,-646.0563C160.5832,-653.112 131.991,-661.0864 108.1766,-667.7283"/>
<polygon fill="none" stroke="#000000" points="106.9786,-664.4288 98.2865,-670.4867 108.8592,-671.1714 106.9786,-664.4288"/>
</g>
<!-- \\Routeur -->
<g id="node5" class="node">
<title>\\Routeur</title>
<polygon fill="none" stroke="#000000" points="281.8304,-1132 219.4147,-1132 219.4147,-1096 281.8304,-1096 281.8304,-1132"/>
<text text-anchor="middle" x="250.6226" y="-1110.7" font-family="Courier,monospace" font-size="11.00" fill="#000000">Routeur</text>
</g>
<!-- \\Classe_Bouteille -->
<g id="node6" class="node">
<title>\\Classe_Bouteille</title>
<polygon fill="none" stroke="#000000" points="311.2403,-1078 190.0048,-1078 190.0048,-1042 311.2403,-1042 311.2403,-1078"/>
<text text-anchor="middle" x="250.6226" y="-1056.7" font-family="Courier,monospace" font-size="11.00" fill="#000000">Classe_Bouteille</text>
</g>
<!-- \\Controleur_Cellier -->
<g id="node7" class="node">
<title>\\Controleur_Cellier</title>
<polygon fill="none" stroke="#000000" points="317.942,-484 183.3031,-484 183.3031,-448 317.942,-448 317.942,-484"/>
<text text-anchor="middle" x="250.6226" y="-462.7" font-family="Courier,monospace" font-size="11.00" fill="#000000">Controleur_Cellier</text>
</g>
<!-- \\Controleur_Cellier&#45;&gt;\\Controleur -->
<g id="edge3" class="edge">
<title>\\Controleur_Cellier&#45;&gt;\\Controleur</title>
<path fill="none" stroke="#000000" d="M183.5165,-447.8314C178.7199,-445.2589 174.1504,-442.3309 170.0107,-439 116.0545,-395.5855 81.875,-318.9773 66.5004,-277.8901"/>
<polygon fill="none" stroke="#000000" points="69.7024,-276.4537 62.9962,-268.2514 63.1236,-278.8454 69.7024,-276.4537"/>
</g>
<!-- \\Classe_Cellier -->
<g id="node8" class="node">
<title>\\Classe_Cellier</title>
<polygon fill="none" stroke="#000000" points="305.0384,-970 196.2067,-970 196.2067,-934 305.0384,-934 305.0384,-970"/>
<text text-anchor="middle" x="250.6226" y="-948.7" font-family="Courier,monospace" font-size="11.00" fill="#000000">Classe_Cellier</text>
</g>
<!-- \\SAQ -->
<g id="node9" class="node">
<title>\\SAQ</title>
<polygon fill="none" stroke="#000000" points="277.6226,-916 223.6226,-916 223.6226,-880 277.6226,-880 277.6226,-916"/>
<text text-anchor="middle" x="250.6226" y="-894.7" font-family="Courier,monospace" font-size="11.00" fill="#000000">SAQ</text>
</g>
<!-- \\Classe_Bouteille_SAQ -->
<g id="node10" class="node">
<title>\\Classe_Bouteille_SAQ</title>
<polygon fill="none" stroke="#000000" points="324.644,-862 176.6011,-862 176.6011,-826 324.644,-826 324.644,-862"/>
<text text-anchor="middle" x="250.6226" y="-840.7" font-family="Courier,monospace" font-size="11.00" fill="#000000">Classe_Bouteille_SAQ</text>
</g>
<!-- \\Log -->
<g id="node11" class="node">
<title>\\Log</title>
<polygon fill="none" stroke="#000000" points="277.6226,-808 223.6226,-808 223.6226,-772 277.6226,-772 277.6226,-808"/>
<text text-anchor="middle" x="250.6226" y="-786.7" font-family="Courier,monospace" font-size="11.00" fill="#000000">Log</text>
</g>
<!-- \\Classe_Affichage -->
<g id="node12" class="node">
<title>\\Classe_Affichage</title>
<polygon fill="none" stroke="#000000" points="311.2403,-754 190.0048,-754 190.0048,-718 311.2403,-718 311.2403,-754"/>
<text text-anchor="middle" x="250.6226" y="-732.7" font-family="Courier,monospace" font-size="11.00" fill="#000000">Classe_Affichage</text>
</g>
<!-- \\Modele_Liste -->
<g id="node13" class="node">
<title>\\Modele_Liste</title>
<polygon fill="none" stroke="#000000" points="298.3357,-592 202.9094,-592 202.9094,-556 298.3357,-556 298.3357,-592"/>
<text text-anchor="middle" x="250.6226" y="-570.7" font-family="Courier,monospace" font-size="11.00" fill="#000000">Modele_Liste</text>
</g>
<!-- \\Modele_Liste&#45;&gt;\\Modele -->
<g id="edge4" class="edge">
<title>\\Modele_Liste&#45;&gt;\\Modele</title>
<path fill="none" stroke="#000000" d="M202.7684,-587.4081C191.7491,-591.2068 180.2614,-595.7601 170.0107,-601 139.5175,-616.5874 108.1148,-639.7758 86.1763,-657.3528"/>
<polygon fill="none" stroke="#000000" points="83.8095,-654.7661 78.2532,-663.7871 88.2223,-660.2 83.8095,-654.7661"/>
</g>
<!-- \\Modele_Cellier -->
<g id="node14" class="node">
<title>\\Modele_Cellier</title>
<polygon fill="none" stroke="#000000" points="305.0384,-538 196.2067,-538 196.2067,-502 305.0384,-502 305.0384,-538"/>
<text text-anchor="middle" x="250.6226" y="-516.7" font-family="Courier,monospace" font-size="11.00" fill="#000000">Modele_Cellier</text>
</g>
<!-- \\Modele_Cellier&#45;&gt;\\Modele -->
<g id="edge5" class="edge">
<title>\\Modele_Cellier&#45;&gt;\\Modele</title>
<path fill="none" stroke="#000000" d="M196.1984,-533.6355C187.0345,-537.1938 177.9366,-541.5948 170.0107,-547 127.6744,-575.8722 92.3224,-624.8291 72.9648,-655.1801"/>
<polygon fill="none" stroke="#000000" points="69.8103,-653.6237 67.4807,-663.9593 75.7472,-657.3323 69.8103,-653.6237"/>
</g>
<!-- \\Modele_Bouteille -->
<g id="node16" class="node">
<title>\\Modele_Bouteille</title>
<polygon fill="none" stroke="#000000" points="311.2403,-1348 190.0048,-1348 190.0048,-1312 311.2403,-1312 311.2403,-1348"/>
<text text-anchor="middle" x="250.6226" y="-1326.7" font-family="Courier,monospace" font-size="11.00" fill="#000000">Modele_Bouteille</text>
</g>
<!-- \\Modele_Bouteille&#45;&gt;\\Modele -->
<g id="edge6" class="edge">
<title>\\Modele_Bouteille&#45;&gt;\\Modele</title>
<path fill="none" stroke="#000000" d="M189.8038,-1317.7502C182.3233,-1314.0537 175.4221,-1309.2475 170.0107,-1303 91.1968,-1212.0078 64.4291,-819.805 58.4231,-710.4219"/>
<polygon fill="none" stroke="#000000" points="61.9044,-709.9758 57.8765,-700.1765 54.9143,-710.3488 61.9044,-709.9758"/>
</g>
<!-- \\Controleur_Login -->
<g id="node17" class="node">
<title>\\Controleur_Login</title>
<polygon fill="none" stroke="#000000" points="311.2403,-268 190.0048,-268 190.0048,-232 311.2403,-232 311.2403,-268"/>
<text text-anchor="middle" x="250.6226" y="-246.7" font-family="Courier,monospace" font-size="11.00" fill="#000000">Controleur_Login</text>
</g>
<!-- \\Controleur_Login&#45;&gt;\\Controleur -->
<g id="edge7" class="edge">
<title>\\Controleur_Login&#45;&gt;\\Controleur</title>
<path fill="none" stroke="#000000" d="M189.8921,-250C163.6721,-250 133.3318,-250 108.2673,-250"/>
<polygon fill="none" stroke="#000000" points="108.2323,-246.5001 98.2323,-250 108.2323,-253.5001 108.2323,-246.5001"/>
</g>
<!-- \\Modele_Affichage -->
<g id="node18" class="node">
<title>\\Modele_Affichage</title>
<polygon fill="none" stroke="#000000" points="311.2403,-1186 190.0048,-1186 190.0048,-1150 311.2403,-1150 311.2403,-1186"/>
<text text-anchor="middle" x="250.6226" y="-1164.7" font-family="Courier,monospace" font-size="11.00" fill="#000000">Modele_Affichage</text>
</g>
<!-- \\Modele_Affichage&#45;&gt;\\Modele -->
<g id="edge8" class="edge">
<title>\\Modele_Affichage&#45;&gt;\\Modele</title>
<path fill="none" stroke="#000000" d="M189.7472,-1155.2441C182.3691,-1151.6209 175.5113,-1146.9699 170.0107,-1141 110.5624,-1076.4786 71.5893,-799.5607 60.3578,-710.0354"/>
<polygon fill="none" stroke="#000000" points="63.8268,-709.5684 59.1261,-700.0735 56.8797,-710.4274 63.8268,-709.5684"/>
</g>
<!-- \\Classe_Usager -->
<g id="node19" class="node">
<title>\\Classe_Usager</title>
<polygon fill="none" stroke="#000000" points="301.4367,-430 199.8084,-430 199.8084,-394 301.4367,-394 301.4367,-430"/>
<text text-anchor="middle" x="250.6226" y="-408.7" font-family="Courier,monospace" font-size="11.00" fill="#000000">Classe_Usager</text>
</g>
<!-- \\JSON -->
<g id="node20" class="node">
<title>\\JSON</title>
<polygon fill="none" stroke="#000000" points="277.6226,-376 223.6226,-376 223.6226,-340 277.6226,-340 277.6226,-376"/>
<text text-anchor="middle" x="250.6226" y="-354.7" font-family="Courier,monospace" font-size="11.00" fill="#000000">JSON</text>
</g>
<!-- \\Controleur_Liste_Achat -->
<g id="node21" class="node">
<title>\\Controleur_Liste_Achat</title>
<polygon fill="none" stroke="#000000" points="331.3463,-322 169.8988,-322 169.8988,-286 331.3463,-286 331.3463,-322"/>
<text text-anchor="middle" x="250.6226" y="-300.7" font-family="Courier,monospace" font-size="11.00" fill="#000000">Controleur_Liste_Achat</text>
</g>
<!-- \\Controleur_Liste_Achat&#45;&gt;\\Controleur -->
<g id="edge9" class="edge">
<title>\\Controleur_Liste_Achat&#45;&gt;\\Controleur</title>
<path fill="none" stroke="#000000" d="M185.8817,-285.9437C160.5832,-278.888 131.991,-270.9136 108.1766,-264.2717"/>
<polygon fill="none" stroke="#000000" points="108.8592,-260.8286 98.2865,-261.5133 106.9786,-267.5712 108.8592,-260.8286"/>
</g>
<!-- \\Modele_Usager -->
<g id="node23" class="node">
<title>\\Modele_Usager</title>
<polygon fill="none" stroke="#000000" points="301.4367,-1024 199.8084,-1024 199.8084,-988 301.4367,-988 301.4367,-1024"/>
<text text-anchor="middle" x="250.6226" y="-1002.7" font-family="Courier,monospace" font-size="11.00" fill="#000000">Modele_Usager</text>
</g>
<!-- \\Modele_Usager&#45;&gt;\\Modele -->
<g id="edge10" class="edge">
<title>\\Modele_Usager&#45;&gt;\\Modele</title>
<path fill="none" stroke="#000000" d="M199.5244,-996.4048C188.7661,-992.4514 178.2073,-986.8721 170.0107,-979 91.7227,-903.8111 67.0221,-768.7602 59.7822,-710.2777"/>
<polygon fill="none" stroke="#000000" points="63.2517,-709.8114 58.6246,-700.2804 56.2982,-710.6167 63.2517,-709.8114"/>
</g>
<!-- \\Controleur_Bouteille -->
<g id="node24" class="node">
<title>\\Controleur_Bouteille</title>
<polygon fill="none" stroke="#000000" points="324.644,-106 176.6011,-106 176.6011,-70 324.644,-70 324.644,-106"/>
<text text-anchor="middle" x="250.6226" y="-84.7" font-family="Courier,monospace" font-size="11.00" fill="#000000">Controleur_Bouteille</text>
</g>
<!-- \\Controleur_Bouteille&#45;&gt;\\Controleur -->
<g id="edge11" class="edge">
<title>\\Controleur_Bouteille&#45;&gt;\\Controleur</title>
<path fill="none" stroke="#000000" d="M185.7169,-106.1244C180.2095,-108.7277 174.8882,-111.6737 170.0107,-115 127.6744,-143.8722 92.3224,-192.8291 72.9648,-223.1801"/>
<polygon fill="none" stroke="#000000" points="69.8103,-221.6237 67.4807,-231.9593 75.7472,-225.3323 69.8103,-221.6237"/>
</g>
<!-- \\Classe_Liste -->
<g id="node25" class="node">
<title>\\Classe_Liste</title>
<polygon fill="none" stroke="#000000" points="298.3357,-160 202.9094,-160 202.9094,-124 298.3357,-124 298.3357,-160"/>
<text text-anchor="middle" x="250.6226" y="-138.7" font-family="Courier,monospace" font-size="11.00" fill="#000000">Classe_Liste</text>
</g>
<!-- \\Modele_Type -->
<g id="node26" class="node">
<title>\\Modele_Type</title>
<polygon fill="none" stroke="#000000" points="294.7352,-700 206.5099,-700 206.5099,-664 294.7352,-664 294.7352,-700"/>
<text text-anchor="middle" x="250.6226" y="-678.7" font-family="Courier,monospace" font-size="11.00" fill="#000000">Modele_Type</text>
</g>
<!-- \\Modele_Type&#45;&gt;\\Modele -->
<g id="edge12" class="edge">
<title>\\Modele_Type&#45;&gt;\\Modele</title>
<path fill="none" stroke="#000000" d="M206.2029,-682C177.0137,-682 138.7316,-682 108.2539,-682"/>
<polygon fill="none" stroke="#000000" points="108.2416,-678.5001 98.2416,-682 108.2415,-685.5001 108.2416,-678.5001"/>
</g>
<!-- \\Classe_Type -->
<g id="node27" class="node">
<title>\\Classe_Type</title>
<polygon fill="none" stroke="#000000" points="294.7352,-52 206.5099,-52 206.5099,-16 294.7352,-16 294.7352,-52"/>
<text text-anchor="middle" x="250.6226" y="-30.7" font-family="Courier,monospace" font-size="11.00" fill="#000000">Classe_Type</text>
</g>
</g>
</svg>
