<?xml version="1.0" encoding="UTF-8" standalone="no"?>
<!DOCTYPE svg PUBLIC "-//W3C//DTD SVG 1.1//EN"
 "http://www.w3.org/Graphics/SVG/1.1/DTD/svg11.dtd">
<!-- Generated by graphviz version 2.40.1 (20161225.0304)
 -->
<!-- Title: G Pages: 1 -->
<svg width="342pt" height="851pt"
 viewBox="0.00 0.00 342.03 851.00" xmlns="http://www.w3.org/2000/svg" xmlns:xlink="http://www.w3.org/1999/xlink">
<g id="graph0" class="graph" transform="scale(1 1) rotate(0) translate(4 847)">
<title>G</title>
<polygon fill="#ffffff" stroke="transparent" points="-4,4 -4,-847 338.0322,-847 338.0322,4 -4,4"/>
<g id="clust1" class="cluster">
<title>cluster_Global</title>
<path fill="none" stroke="#c0c0c0" d="M20,-8C20,-8 314.0322,-8 314.0322,-8 320.0322,-8 326.0322,-14 326.0322,-20 326.0322,-20 326.0322,-823 326.0322,-823 326.0322,-829 320.0322,-835 314.0322,-835 314.0322,-835 20,-835 20,-835 14,-835 8,-829 8,-823 8,-823 8,-20 8,-20 8,-14 14,-8 20,-8"/>
<text text-anchor="middle" x="167.0161" y="-822.2" font-family="Times,serif" font-size="11.00" fill="#c0c0c0">Global</text>
</g>
<!-- \\Classe_Usager -->
<g id="node1" class="node">
<title>\\Classe_Usager</title>
<polygon fill="none" stroke="#000000" points="294.8356,-808 193.2073,-808 193.2073,-772 294.8356,-772 294.8356,-808"/>
<text text-anchor="middle" x="244.0215" y="-786.7" font-family="Courier,monospace" font-size="11.00" fill="#000000">Classe_Usager</text>
</g>
<!-- \\Modele -->
<g id="node2" class="node">
<title>\\Modele</title>
<polygon fill="none" stroke="#000000" points="98.0161,-538 15.9946,-538 15.9946,-502 98.0161,-502 98.0161,-538"/>
<text text-anchor="start" x="24" y="-522.2" font-family="Courier,monospace" font-size="11.00" fill="#000000">«abstract»</text>
<text text-anchor="start" x="37.2021" y="-511.2" font-family="Courier,monospace" font-size="11.00" fill="#000000">Modele</text>
</g>
<!-- \\Classe_Cellier -->
<g id="node3" class="node">
<title>\\Classe_Cellier</title>
<polygon fill="none" stroke="#000000" points="298.4373,-754 189.6056,-754 189.6056,-718 298.4373,-718 298.4373,-754"/>
<text text-anchor="middle" x="244.0215" y="-732.7" font-family="Courier,monospace" font-size="11.00" fill="#000000">Classe_Cellier</text>
</g>
<!-- \\Classe_Bouteille_SAQ -->
<g id="node4" class="node">
<title>\\Classe_Bouteille_SAQ</title>
<polygon fill="none" stroke="#000000" points="318.043,-700 170,-700 170,-664 318.043,-664 318.043,-700"/>
<text text-anchor="middle" x="244.0215" y="-678.7" font-family="Courier,monospace" font-size="11.00" fill="#000000">Classe_Bouteille_SAQ</text>
</g>
<!-- \\Modele_Usager -->
<g id="node5" class="node">
<title>\\Modele_Usager</title>
<polygon fill="none" stroke="#000000" points="294.8356,-646 193.2073,-646 193.2073,-610 294.8356,-610 294.8356,-646"/>
<text text-anchor="middle" x="244.0215" y="-624.7" font-family="Courier,monospace" font-size="11.00" fill="#000000">Modele_Usager</text>
</g>
<!-- \\Modele_Usager&#45;&gt;\\Modele -->
<g id="edge1" class="edge">
<title>\\Modele_Usager&#45;&gt;\\Modele</title>
<path fill="none" stroke="#000000" d="M193.063,-611.4932C185.1882,-608.3511 177.2675,-604.8321 170.0107,-601 139.7276,-585.0082 108.3021,-561.8636 86.3016,-544.4061"/>
<polygon fill="none" stroke="#000000" points="88.3411,-541.555 78.3531,-538.0205 83.9569,-547.0121 88.3411,-541.555"/>
</g>
<!-- \\Modele_Cellier -->
<g id="node6" class="node">
<title>\\Modele_Cellier</title>
<polygon fill="none" stroke="#000000" points="298.4373,-592 189.6056,-592 189.6056,-556 298.4373,-556 298.4373,-592"/>
<text text-anchor="middle" x="244.0215" y="-570.7" font-family="Courier,monospace" font-size="11.00" fill="#000000">Modele_Cellier</text>
</g>
<!-- \\Modele_Cellier&#45;&gt;\\Modele -->
<g id="edge2" class="edge">
<title>\\Modele_Cellier&#45;&gt;\\Modele</title>
<path fill="none" stroke="#000000" d="M189.6775,-558.3084C163.8762,-550.8584 133.2195,-542.0065 107.8784,-534.6893"/>
<polygon fill="none" stroke="#000000" points="108.6701,-531.275 98.0916,-531.8634 106.7281,-538.0003 108.6701,-531.275"/>
</g>
<!-- \\Modele_Bouteille -->
<g id="node7" class="node">
<title>\\Modele_Bouteille</title>
<polygon fill="none" stroke="#000000" points="304.6393,-538 183.4037,-538 183.4037,-502 304.6393,-502 304.6393,-538"/>
<text text-anchor="middle" x="244.0215" y="-516.7" font-family="Courier,monospace" font-size="11.00" fill="#000000">Modele_Bouteille</text>
</g>
<!-- \\Modele_Bouteille&#45;&gt;\\Modele -->
<g id="edge3" class="edge">
<title>\\Modele_Bouteille&#45;&gt;\\Modele</title>
<path fill="none" stroke="#000000" d="M183.3027,-520C159.1628,-520 131.6847,-520 108.5371,-520"/>
<polygon fill="none" stroke="#000000" points="108.2341,-516.5001 98.234,-520 108.234,-523.5001 108.2341,-516.5001"/>
</g>
<!-- \\Classe_Bouteille -->
<g id="node8" class="node">
<title>\\Classe_Bouteille</title>
<polygon fill="none" stroke="#000000" points="304.6393,-484 183.4037,-484 183.4037,-448 304.6393,-448 304.6393,-484"/>
<text text-anchor="middle" x="244.0215" y="-462.7" font-family="Courier,monospace" font-size="11.00" fill="#000000">Classe_Bouteille</text>
</g>
<!-- \\Modele_BouteilleSaq -->
<g id="node9" class="node">
<title>\\Modele_BouteilleSaq</title>
<polygon fill="none" stroke="#000000" points="314.9425,-430 173.1004,-430 173.1004,-394 314.9425,-394 314.9425,-430"/>
<text text-anchor="middle" x="244.0215" y="-408.7" font-family="Courier,monospace" font-size="11.00" fill="#000000">Modele_BouteilleSaq</text>
</g>
<!-- \\Modele_BouteilleSaq&#45;&gt;\\Modele -->
<g id="edge4" class="edge">
<title>\\Modele_BouteilleSaq&#45;&gt;\\Modele</title>
<path fill="none" stroke="#000000" d="M189.125,-430.109C182.5664,-432.8306 176.0581,-435.8066 170.0107,-439 139.7276,-454.9918 108.3021,-478.1364 86.3016,-495.5939"/>
<polygon fill="none" stroke="#000000" points="83.9569,-492.9879 78.3531,-501.9795 88.3411,-498.445 83.9569,-492.9879"/>
</g>
<!-- \\DBFactory -->
<g id="node10" class="node">
<title>\\DBFactory</title>
<polygon fill="none" stroke="#000000" points="281.9323,-376 206.1107,-376 206.1107,-340 281.9323,-340 281.9323,-376"/>
<text text-anchor="middle" x="244.0215" y="-354.7" font-family="Courier,monospace" font-size="11.00" fill="#000000">DBFactory</text>
</g>
<!-- \\Modele_Type -->
<g id="node11" class="node">
<title>\\Modele_Type</title>
<polygon fill="none" stroke="#000000" points="288.1341,-322 199.9088,-322 199.9088,-286 288.1341,-286 288.1341,-322"/>
<text text-anchor="middle" x="244.0215" y="-300.7" font-family="Courier,monospace" font-size="11.00" fill="#000000">Modele_Type</text>
</g>
<!-- \\Modele_Type&#45;&gt;\\Modele -->
<g id="edge5" class="edge">
<title>\\Modele_Type&#45;&gt;\\Modele</title>
<path fill="none" stroke="#000000" d="M199.9063,-314.5595C189.3543,-318.515 178.6545,-323.8535 170.0107,-331 116.637,-375.1286 82.2157,-451.4403 66.6498,-492.293"/>
<polygon fill="none" stroke="#000000" points="63.2922,-491.2811 63.0986,-501.8742 69.8559,-493.714 63.2922,-491.2811"/>
</g>
<!-- \\Controleur -->
<g id="node12" class="node">
<title>\\Controleur</title>
<polygon fill="none" stroke="#000000" points="98.0161,-187 15.9946,-187 15.9946,-151 98.0161,-151 98.0161,-187"/>
<text text-anchor="start" x="24" y="-171.2" font-family="Courier,monospace" font-size="11.00" fill="#000000">«abstract»</text>
<text text-anchor="start" x="24" y="-160.2" font-family="Courier,monospace" font-size="11.00" fill="#000000">Controleur</text>
</g>
<!-- \\Controleur_Admin -->
<g id="node13" class="node">
<title>\\Controleur_Admin</title>
<polygon fill="none" stroke="#000000" points="304.6393,-268 183.4037,-268 183.4037,-232 304.6393,-232 304.6393,-268"/>
<text text-anchor="middle" x="244.0215" y="-246.7" font-family="Courier,monospace" font-size="11.00" fill="#000000">Controleur_Admin</text>
</g>
<!-- \\Controleur_Admin&#45;&gt;\\Controleur -->
<g id="edge6" class="edge">
<title>\\Controleur_Admin&#45;&gt;\\Controleur</title>
<path fill="none" stroke="#000000" d="M192.4135,-231.8944C184.854,-229.0338 177.1981,-226.0201 170.0107,-223 147.1512,-213.3946 122.234,-201.6317 101.6283,-191.5393"/>
<polygon fill="none" stroke="#000000" points="103.0041,-188.3154 92.4871,-187.0336 99.9093,-194.5941 103.0041,-188.3154"/>
</g>
<!-- \\Controleur_Login -->
<g id="node14" class="node">
<title>\\Controleur_Login</title>
<polygon fill="none" stroke="#000000" points="304.6393,-214 183.4037,-214 183.4037,-178 304.6393,-178 304.6393,-214"/>
<text text-anchor="middle" x="244.0215" y="-192.7" font-family="Courier,monospace" font-size="11.00" fill="#000000">Controleur_Login</text>
</g>
<!-- \\Controleur_Login&#45;&gt;\\Controleur -->
<g id="edge7" class="edge">
<title>\\Controleur_Login&#45;&gt;\\Controleur</title>
<path fill="none" stroke="#000000" d="M183.3027,-187.2339C159.0541,-183.733 131.437,-179.7459 108.2246,-176.3946"/>
<polygon fill="none" stroke="#000000" points="108.6316,-172.9172 98.234,-174.9523 107.6313,-179.8454 108.6316,-172.9172"/>
</g>
<!-- \\Controleur_Bouteille -->
<g id="node15" class="node">
<title>\\Controleur_Bouteille</title>
<polygon fill="none" stroke="#000000" points="318.043,-160 170,-160 170,-124 318.043,-124 318.043,-160"/>
<text text-anchor="middle" x="244.0215" y="-138.7" font-family="Courier,monospace" font-size="11.00" fill="#000000">Controleur_Bouteille</text>
</g>
<!-- \\Controleur_Bouteille&#45;&gt;\\Controleur -->
<g id="edge8" class="edge">
<title>\\Controleur_Bouteille&#45;&gt;\\Controleur</title>
<path fill="none" stroke="#000000" d="M169.8392,-152.7099C149.1791,-155.6926 127.2028,-158.8654 108.1866,-161.6108"/>
<polygon fill="none" stroke="#000000" points="107.6426,-158.153 98.2453,-163.0461 108.6429,-165.0812 107.6426,-158.153"/>
</g>
<!-- \\Routeur -->
<g id="node16" class="node">
<title>\\Routeur</title>
<polygon fill="none" stroke="#000000" points="275.2294,-106 212.8136,-106 212.8136,-70 275.2294,-70 275.2294,-106"/>
<text text-anchor="middle" x="244.0215" y="-84.7" font-family="Courier,monospace" font-size="11.00" fill="#000000">Routeur</text>
</g>
<!-- \\Controleur_Cellier -->
<g id="node17" class="node">
<title>\\Controleur_Cellier</title>
<polygon fill="none" stroke="#000000" points="311.3409,-52 176.702,-52 176.702,-16 311.3409,-16 311.3409,-52"/>
<text text-anchor="middle" x="244.0215" y="-30.7" font-family="Courier,monospace" font-size="11.00" fill="#000000">Controleur_Cellier</text>
</g>
<!-- \\Controleur_Cellier&#45;&gt;\\Controleur -->
<g id="edge9" class="edge">
<title>\\Controleur_Cellier&#45;&gt;\\Controleur</title>
<path fill="none" stroke="#000000" d="M186.7197,-52.167C180.9137,-54.8084 175.2376,-57.75 170.0107,-61 133.776,-83.5301 99.4239,-119.1234 78.3097,-143.2355"/>
<polygon fill="none" stroke="#000000" points="75.5496,-141.0769 71.6732,-150.9371 80.8525,-145.6464 75.5496,-141.0769"/>
</g>
</g>
</svg>
