<?xml version="1.0" encoding="UTF-8" standalone="no"?>
<!DOCTYPE svg PUBLIC "-//W3C//DTD SVG 1.1//EN"
 "http://www.w3.org/Graphics/SVG/1.1/DTD/svg11.dtd">
<!-- Generated by graphviz version 2.40.1 (20161225.0304)
 -->
<!-- Title: G Pages: 1 -->
<svg width="342pt" height="905pt"
 viewBox="0.00 0.00 342.03 905.00" xmlns="http://www.w3.org/2000/svg" xmlns:xlink="http://www.w3.org/1999/xlink">
<g id="graph0" class="graph" transform="scale(1 1) rotate(0) translate(4 901)">
<title>G</title>
<polygon fill="#ffffff" stroke="transparent" points="-4,4 -4,-901 338.0322,-901 338.0322,4 -4,4"/>
<g id="clust1" class="cluster">
<title>cluster_Global</title>
<path fill="none" stroke="#c0c0c0" d="M20,-8C20,-8 314.0322,-8 314.0322,-8 320.0322,-8 326.0322,-14 326.0322,-20 326.0322,-20 326.0322,-877 326.0322,-877 326.0322,-883 320.0322,-889 314.0322,-889 314.0322,-889 20,-889 20,-889 14,-889 8,-883 8,-877 8,-877 8,-20 8,-20 8,-14 14,-8 20,-8"/>
<text text-anchor="middle" x="167.0161" y="-876.2" font-family="Times,serif" font-size="11.00" fill="#c0c0c0">Global</text>
</g>
<!-- \\BaseDeDonnees -->
<g id="node1" class="node">
<title>\\BaseDeDonnees</title>
<polygon fill="none" stroke="#000000" points="294.8356,-862 193.2073,-862 193.2073,-826 294.8356,-826 294.8356,-862"/>
<text text-anchor="middle" x="244.0215" y="-840.7" font-family="Courier,monospace" font-size="11.00" fill="#000000">BaseDeDonnees</text>
</g>
<!-- \\Modele_Bouteille_SAQ -->
<g id="node2" class="node">
<title>\\Modele_Bouteille_SAQ</title>
<polygon fill="none" stroke="#000000" points="318.043,-268 170,-268 170,-232 318.043,-232 318.043,-268"/>
<text text-anchor="middle" x="244.0215" y="-246.7" font-family="Courier,monospace" font-size="11.00" fill="#000000">Modele_Bouteille_SAQ</text>
</g>
<!-- \\Modele -->
<g id="node13" class="node">
<title>\\Modele</title>
<polygon fill="none" stroke="#000000" points="98.0161,-268 15.9946,-268 15.9946,-232 98.0161,-232 98.0161,-268"/>
<text text-anchor="start" x="24" y="-252.2" font-family="Courier,monospace" font-size="11.00" fill="#000000">«abstract»</text>
<text text-anchor="start" x="37.2021" y="-241.2" font-family="Courier,monospace" font-size="11.00" fill="#000000">Modele</text>
</g>
<!-- \\Modele_Bouteille_SAQ&#45;&gt;\\Modele -->
<g id="edge1" class="edge">
<title>\\Modele_Bouteille_SAQ&#45;&gt;\\Modele</title>
<path fill="none" stroke="#000000" d="M169.8392,-250C149.2743,-250 127.4053,-250 108.4497,-250"/>
<polygon fill="none" stroke="#000000" points="108.2454,-246.5001 98.2453,-250 108.2453,-253.5001 108.2454,-246.5001"/>
</g>
<!-- \\Classe_Bouteille -->
<g id="node3" class="node">
<title>\\Classe_Bouteille</title>
<polygon fill="none" stroke="#000000" points="304.6393,-754 183.4037,-754 183.4037,-718 304.6393,-718 304.6393,-754"/>
<text text-anchor="middle" x="244.0215" y="-732.7" font-family="Courier,monospace" font-size="11.00" fill="#000000">Classe_Bouteille</text>
</g>
<!-- \\Controleur_Cellier -->
<g id="node4" class="node">
<title>\\Controleur_Cellier</title>
<polygon fill="none" stroke="#000000" points="311.3409,-808 176.702,-808 176.702,-772 311.3409,-772 311.3409,-808"/>
<text text-anchor="middle" x="244.0215" y="-786.7" font-family="Courier,monospace" font-size="11.00" fill="#000000">Controleur_Cellier</text>
</g>
<!-- \\Controleur -->
<g id="node8" class="node">
<title>\\Controleur</title>
<polygon fill="none" stroke="#000000" points="98.0161,-619 15.9946,-619 15.9946,-583 98.0161,-583 98.0161,-619"/>
<text text-anchor="start" x="24" y="-603.2" font-family="Courier,monospace" font-size="11.00" fill="#000000">«abstract»</text>
<text text-anchor="start" x="24" y="-592.2" font-family="Courier,monospace" font-size="11.00" fill="#000000">Controleur</text>
</g>
<!-- \\Controleur_Cellier&#45;&gt;\\Controleur -->
<g id="edge2" class="edge">
<title>\\Controleur_Cellier&#45;&gt;\\Controleur</title>
<path fill="none" stroke="#000000" d="M184.1278,-771.8963C179.135,-769.2886 174.347,-766.336 170.0107,-763 122.4356,-726.399 87.0872,-664.1109 69.488,-628.3754"/>
<polygon fill="none" stroke="#000000" points="72.4882,-626.5382 64.9993,-619.0437 66.18,-629.5726 72.4882,-626.5382"/>
</g>
<!-- \\Classe_Cellier -->
<g id="node5" class="node">
<title>\\Classe_Cellier</title>
<polygon fill="none" stroke="#000000" points="298.4373,-646 189.6056,-646 189.6056,-610 298.4373,-610 298.4373,-646"/>
<text text-anchor="middle" x="244.0215" y="-624.7" font-family="Courier,monospace" font-size="11.00" fill="#000000">Classe_Cellier</text>
</g>
<!-- \\Classe_Bouteille_SAQ -->
<g id="node6" class="node">
<title>\\Classe_Bouteille_SAQ</title>
<polygon fill="none" stroke="#000000" points="318.043,-592 170,-592 170,-556 318.043,-556 318.043,-592"/>
<text text-anchor="middle" x="244.0215" y="-570.7" font-family="Courier,monospace" font-size="11.00" fill="#000000">Classe_Bouteille_SAQ</text>
</g>
<!-- \\Controleur_Admin -->
<g id="node7" class="node">
<title>\\Controleur_Admin</title>
<polygon fill="none" stroke="#000000" points="304.6393,-700 183.4037,-700 183.4037,-664 304.6393,-664 304.6393,-700"/>
<text text-anchor="middle" x="244.0215" y="-678.7" font-family="Courier,monospace" font-size="11.00" fill="#000000">Controleur_Admin</text>
</g>
<!-- \\Controleur_Admin&#45;&gt;\\Controleur -->
<g id="edge3" class="edge">
<title>\\Controleur_Admin&#45;&gt;\\Controleur</title>
<path fill="none" stroke="#000000" d="M192.4135,-663.8944C184.854,-661.0338 177.1981,-658.0201 170.0107,-655 147.1512,-645.3946 122.234,-633.6317 101.6283,-623.5393"/>
<polygon fill="none" stroke="#000000" points="103.0041,-620.3154 92.4871,-619.0336 99.9093,-626.5941 103.0041,-620.3154"/>
</g>
<!-- \\Modele_Cellier -->
<g id="node9" class="node">
<title>\\Modele_Cellier</title>
<polygon fill="none" stroke="#000000" points="298.4373,-376 189.6056,-376 189.6056,-340 298.4373,-340 298.4373,-376"/>
<text text-anchor="middle" x="244.0215" y="-354.7" font-family="Courier,monospace" font-size="11.00" fill="#000000">Modele_Cellier</text>
</g>
<!-- \\Modele_Cellier&#45;&gt;\\Modele -->
<g id="edge4" class="edge">
<title>\\Modele_Cellier&#45;&gt;\\Modele</title>
<path fill="none" stroke="#000000" d="M189.5186,-340.054C182.8269,-337.2883 176.179,-334.2573 170.0107,-331 139.7276,-315.0082 108.3021,-291.8636 86.3016,-274.4061"/>
<polygon fill="none" stroke="#000000" points="88.3411,-271.555 78.3531,-268.0205 83.9569,-277.0121 88.3411,-271.555"/>
</g>
<!-- \\Modele_Bouteille -->
<g id="node10" class="node">
<title>\\Modele_Bouteille</title>
<polygon fill="none" stroke="#000000" points="304.6393,-214 183.4037,-214 183.4037,-178 304.6393,-178 304.6393,-214"/>
<text text-anchor="middle" x="244.0215" y="-192.7" font-family="Courier,monospace" font-size="11.00" fill="#000000">Modele_Bouteille</text>
</g>
<!-- \\Modele_Bouteille&#45;&gt;\\Modele -->
<g id="edge5" class="edge">
<title>\\Modele_Bouteille&#45;&gt;\\Modele</title>
<path fill="none" stroke="#000000" d="M183.3027,-213.5323C158.9453,-220.5653 131.1893,-228.5798 107.9126,-235.3008"/>
<polygon fill="none" stroke="#000000" points="106.8706,-231.9586 98.234,-238.0954 108.8125,-238.6839 106.8706,-231.9586"/>
</g>
<!-- \\Controleur_Login -->
<g id="node11" class="node">
<title>\\Controleur_Login</title>
<polygon fill="none" stroke="#000000" points="304.6393,-538 183.4037,-538 183.4037,-502 304.6393,-502 304.6393,-538"/>
<text text-anchor="middle" x="244.0215" y="-516.7" font-family="Courier,monospace" font-size="11.00" fill="#000000">Controleur_Login</text>
</g>
<!-- \\Controleur_Login&#45;&gt;\\Controleur -->
<g id="edge6" class="edge">
<title>\\Controleur_Login&#45;&gt;\\Controleur</title>
<path fill="none" stroke="#000000" d="M192.4135,-538.1056C184.854,-540.9662 177.1981,-543.9799 170.0107,-547 147.1512,-556.6054 122.234,-568.3683 101.6283,-578.4607"/>
<polygon fill="none" stroke="#000000" points="99.9093,-575.4059 92.4871,-582.9664 103.0041,-581.6846 99.9093,-575.4059"/>
</g>
<!-- \\Classe_Usager -->
<g id="node12" class="node">
<title>\\Classe_Usager</title>
<polygon fill="none" stroke="#000000" points="294.8356,-322 193.2073,-322 193.2073,-286 294.8356,-286 294.8356,-322"/>
<text text-anchor="middle" x="244.0215" y="-300.7" font-family="Courier,monospace" font-size="11.00" fill="#000000">Classe_Usager</text>
</g>
<!-- \\Modele_Usager -->
<g id="node14" class="node">
<title>\\Modele_Usager</title>
<polygon fill="none" stroke="#000000" points="294.8356,-430 193.2073,-430 193.2073,-394 294.8356,-394 294.8356,-430"/>
<text text-anchor="middle" x="244.0215" y="-408.7" font-family="Courier,monospace" font-size="11.00" fill="#000000">Modele_Usager</text>
</g>
<!-- \\Modele_Usager&#45;&gt;\\Modele -->
<g id="edge7" class="edge">
<title>\\Modele_Usager&#45;&gt;\\Modele</title>
<path fill="none" stroke="#000000" d="M192.8907,-397.3753C184.8729,-393.9657 176.9524,-389.8706 170.0107,-385 128.2891,-355.7261 92.9739,-307.3106 73.4208,-277.1103"/>
<polygon fill="none" stroke="#000000" points="76.1831,-274.931 67.869,-268.3639 70.2731,-278.6824 76.1831,-274.931"/>
</g>
<!-- \\Controleur_Bouteille -->
<g id="node15" class="node">
<title>\\Controleur_Bouteille</title>
<polygon fill="none" stroke="#000000" points="318.043,-484 170,-484 170,-448 318.043,-448 318.043,-484"/>
<text text-anchor="middle" x="244.0215" y="-462.7" font-family="Courier,monospace" font-size="11.00" fill="#000000">Controleur_Bouteille</text>
</g>
<!-- \\Controleur_Bouteille&#45;&gt;\\Controleur -->
<g id="edge8" class="edge">
<title>\\Controleur_Bouteille&#45;&gt;\\Controleur</title>
<path fill="none" stroke="#000000" d="M186.7197,-484.167C180.9137,-486.8084 175.2376,-489.75 170.0107,-493 133.776,-515.5301 99.4239,-551.1234 78.3097,-575.2355"/>
<polygon fill="none" stroke="#000000" points="75.5496,-573.0769 71.6732,-582.9371 80.8525,-577.6464 75.5496,-573.0769"/>
</g>
<!-- \\Modele_Type -->
<g id="node16" class="node">
<title>\\Modele_Type</title>
<polygon fill="none" stroke="#000000" points="288.1341,-160 199.9088,-160 199.9088,-124 288.1341,-124 288.1341,-160"/>
<text text-anchor="middle" x="244.0215" y="-138.7" font-family="Courier,monospace" font-size="11.00" fill="#000000">Modele_Type</text>
</g>
<!-- \\Modele_Type&#45;&gt;\\Modele -->
<g id="edge9" class="edge">
<title>\\Modele_Type&#45;&gt;\\Modele</title>
<path fill="none" stroke="#000000" d="M199.7293,-155.9282C189.7299,-159.68 179.3236,-164.0821 170.0107,-169 139.7276,-184.9918 108.3021,-208.1364 86.3016,-225.5939"/>
<polygon fill="none" stroke="#000000" points="83.9569,-222.9879 78.3531,-231.9795 88.3411,-228.445 83.9569,-222.9879"/>
</g>
<!-- \\Routeur -->
<g id="node17" class="node">
<title>\\Routeur</title>
<polygon fill="none" stroke="#000000" points="275.2294,-106 212.8136,-106 212.8136,-70 275.2294,-70 275.2294,-106"/>
<text text-anchor="middle" x="244.0215" y="-84.7" font-family="Courier,monospace" font-size="11.00" fill="#000000">Routeur</text>
</g>
<!-- \\Classe_Type -->
<g id="node18" class="node">
<title>\\Classe_Type</title>
<polygon fill="none" stroke="#000000" points="288.1341,-52 199.9088,-52 199.9088,-16 288.1341,-16 288.1341,-52"/>
<text text-anchor="middle" x="244.0215" y="-30.7" font-family="Courier,monospace" font-size="11.00" fill="#000000">Classe_Type</text>
</g>
</g>
</svg>
