<?xml version="1.0" encoding="UTF-8" standalone="no"?>
<!DOCTYPE svg PUBLIC "-//W3C//DTD SVG 1.1//EN"
 "http://www.w3.org/Graphics/SVG/1.1/DTD/svg11.dtd">
<!-- Generated by graphviz version 2.40.1 (20161225.0304)
 -->
<!-- Title: G Pages: 1 -->
<svg width="342pt" height="851pt"
 viewBox="0.00 0.00 342.03 851.00" xmlns="http://www.w3.org/2000/svg" xmlns:xlink="http://www.w3.org/1999/xlink">
<g id="graph0" class="graph" transform="scale(1 1) rotate(0) translate(4 847)">
<title>G</title>
<polygon fill="#ffffff" stroke="transparent" points="-4,4 -4,-847 338.0322,-847 338.0322,4 -4,4"/>
<g id="clust1" class="cluster">
<title>cluster_Global</title>
<path fill="none" stroke="#c0c0c0" d="M20,-8C20,-8 314.0322,-8 314.0322,-8 320.0322,-8 326.0322,-14 326.0322,-20 326.0322,-20 326.0322,-823 326.0322,-823 326.0322,-829 320.0322,-835 314.0322,-835 314.0322,-835 20,-835 20,-835 14,-835 8,-829 8,-823 8,-823 8,-20 8,-20 8,-14 14,-8 20,-8"/>
<text text-anchor="middle" x="167.0161" y="-822.2" font-family="Times,serif" font-size="11.00" fill="#c0c0c0">Global</text>
</g>
<!-- \\Usager -->
<g id="node1" class="node">
<title>\\Usager</title>
<polygon fill="none" stroke="#000000" points="271.6293,-808 216.4137,-808 216.4137,-772 271.6293,-772 271.6293,-808"/>
<text text-anchor="middle" x="244.0215" y="-786.7" font-family="Courier,monospace" font-size="11.00" fill="#000000">Usager</text>
</g>
<!-- \\DBFactory -->
<g id="node2" class="node">
<title>\\DBFactory</title>
<polygon fill="none" stroke="#000000" points="281.9323,-754 206.1107,-754 206.1107,-718 281.9323,-718 281.9323,-754"/>
<text text-anchor="middle" x="244.0215" y="-732.7" font-family="Courier,monospace" font-size="11.00" fill="#000000">DBFactory</text>
</g>
<!-- \\Bouteille -->
<g id="node3" class="node">
<title>\\Bouteille</title>
<polygon fill="none" stroke="#000000" points="281.9323,-700 206.1107,-700 206.1107,-664 281.9323,-664 281.9323,-700"/>
<text text-anchor="middle" x="244.0215" y="-678.7" font-family="Courier,monospace" font-size="11.00" fill="#000000">Bouteille</text>
</g>
<!-- \\Cellier -->
<g id="node4" class="node">
<title>\\Cellier</title>
<polygon fill="none" stroke="#000000" points="275.2294,-646 212.8136,-646 212.8136,-610 275.2294,-610 275.2294,-646"/>
<text text-anchor="middle" x="244.0215" y="-624.7" font-family="Courier,monospace" font-size="11.00" fill="#000000">Cellier</text>
</g>
<!-- \\Controleur -->
<g id="node5" class="node">
<title>\\Controleur</title>
<polygon fill="none" stroke="#000000" points="98.0161,-133 15.9946,-133 15.9946,-97 98.0161,-97 98.0161,-133"/>
<text text-anchor="start" x="24" y="-117.2" font-family="Courier,monospace" font-size="11.00" fill="#000000">«abstract»</text>
<text text-anchor="start" x="24" y="-106.2" font-family="Courier,monospace" font-size="11.00" fill="#000000">Controleur</text>
</g>
<!-- \\Modele_Cellier -->
<g id="node6" class="node">
<title>\\Modele_Cellier</title>
<polygon fill="none" stroke="#000000" points="298.4373,-592 189.6056,-592 189.6056,-556 298.4373,-556 298.4373,-592"/>
<text text-anchor="middle" x="244.0215" y="-570.7" font-family="Courier,monospace" font-size="11.00" fill="#000000">Modele_Cellier</text>
</g>
<!-- \\Modele -->
<g id="node9" class="node">
<title>\\Modele</title>
<polygon fill="none" stroke="#000000" points="98.0161,-430 15.9946,-430 15.9946,-394 98.0161,-394 98.0161,-430"/>
<text text-anchor="start" x="24" y="-414.2" font-family="Courier,monospace" font-size="11.00" fill="#000000">«abstract»</text>
<text text-anchor="start" x="37.2021" y="-403.2" font-family="Courier,monospace" font-size="11.00" fill="#000000">Modele</text>
</g>
<!-- \\Modele_Cellier&#45;&gt;\\Modele -->
<g id="edge1" class="edge">
<title>\\Modele_Cellier&#45;&gt;\\Modele</title>
<path fill="none" stroke="#000000" d="M189.7938,-558.021C182.8452,-554.896 176.0567,-551.2422 170.0107,-547 128.2891,-517.7261 92.9739,-469.3106 73.4208,-439.1103"/>
<polygon fill="none" stroke="#000000" points="76.1831,-436.931 67.869,-430.3639 70.2731,-440.6824 76.1831,-436.931"/>
</g>
<!-- \\BouteilleSaq -->
<g id="node7" class="node">
<title>\\BouteilleSaq</title>
<polygon fill="none" stroke="#000000" points="291.7346,-538 196.3084,-538 196.3084,-502 291.7346,-502 291.7346,-538"/>
<text text-anchor="middle" x="244.0215" y="-516.7" font-family="Courier,monospace" font-size="11.00" fill="#000000">BouteilleSaq</text>
</g>
<!-- \\Modele_Bouteille -->
<g id="node8" class="node">
<title>\\Modele_Bouteille</title>
<polygon fill="none" stroke="#000000" points="304.6393,-484 183.4037,-484 183.4037,-448 304.6393,-448 304.6393,-484"/>
<text text-anchor="middle" x="244.0215" y="-462.7" font-family="Courier,monospace" font-size="11.00" fill="#000000">Modele_Bouteille</text>
</g>
<!-- \\Modele_Bouteille&#45;&gt;\\Modele -->
<g id="edge2" class="edge">
<title>\\Modele_Bouteille&#45;&gt;\\Modele</title>
<path fill="none" stroke="#000000" d="M183.3027,-448.4677C158.9453,-441.4347 131.1893,-433.4202 107.9126,-426.6992"/>
<polygon fill="none" stroke="#000000" points="108.8125,-423.3161 98.234,-423.9046 106.8706,-430.0414 108.8125,-423.3161"/>
</g>
<!-- \\Modele_Usager -->
<g id="node10" class="node">
<title>\\Modele_Usager</title>
<polygon fill="none" stroke="#000000" points="294.8356,-430 193.2073,-430 193.2073,-394 294.8356,-394 294.8356,-430"/>
<text text-anchor="middle" x="244.0215" y="-408.7" font-family="Courier,monospace" font-size="11.00" fill="#000000">Modele_Usager</text>
</g>
<!-- \\Modele_Usager&#45;&gt;\\Modele -->
<g id="edge3" class="edge">
<title>\\Modele_Usager&#45;&gt;\\Modele</title>
<path fill="none" stroke="#000000" d="M192.9185,-412C166.6629,-412 134.7485,-412 108.4448,-412"/>
<polygon fill="none" stroke="#000000" points="108.2929,-408.5001 98.2929,-412 108.2928,-415.5001 108.2929,-408.5001"/>
</g>
<!-- \\Modele_Type -->
<g id="node11" class="node">
<title>\\Modele_Type</title>
<polygon fill="none" stroke="#000000" points="288.1341,-376 199.9088,-376 199.9088,-340 288.1341,-340 288.1341,-376"/>
<text text-anchor="middle" x="244.0215" y="-354.7" font-family="Courier,monospace" font-size="11.00" fill="#000000">Modele_Type</text>
</g>
<!-- \\Modele_Type&#45;&gt;\\Modele -->
<g id="edge4" class="edge">
<title>\\Modele_Type&#45;&gt;\\Modele</title>
<path fill="none" stroke="#000000" d="M199.7013,-370.7972C172.164,-378.7485 136.6706,-388.9971 107.9718,-397.2837"/>
<polygon fill="none" stroke="#000000" points="106.7647,-393.9892 98.1282,-400.126 108.7067,-400.7144 106.7647,-393.9892"/>
</g>
<!-- \\Routeur -->
<g id="node12" class="node">
<title>\\Routeur</title>
<polygon fill="none" stroke="#000000" points="275.2294,-322 212.8136,-322 212.8136,-286 275.2294,-286 275.2294,-322"/>
<text text-anchor="middle" x="244.0215" y="-300.7" font-family="Courier,monospace" font-size="11.00" fill="#000000">Routeur</text>
</g>
<!-- \\Modele_BouteilleSaq -->
<g id="node13" class="node">
<title>\\Modele_BouteilleSaq</title>
<polygon fill="none" stroke="#000000" points="314.9425,-268 173.1004,-268 173.1004,-232 314.9425,-232 314.9425,-268"/>
<text text-anchor="middle" x="244.0215" y="-246.7" font-family="Courier,monospace" font-size="11.00" fill="#000000">Modele_BouteilleSaq</text>
</g>
<!-- \\Modele_BouteilleSaq&#45;&gt;\\Modele -->
<g id="edge5" class="edge">
<title>\\Modele_BouteilleSaq&#45;&gt;\\Modele</title>
<path fill="none" stroke="#000000" d="M185.1915,-268.1413C179.8648,-270.757 174.7132,-273.7005 170.0107,-277 128.2891,-306.2739 92.9739,-354.6894 73.4208,-384.8897"/>
<polygon fill="none" stroke="#000000" points="70.2731,-383.3176 67.869,-393.6361 76.1831,-387.069 70.2731,-383.3176"/>
</g>
<!-- \\Controleur_Admin -->
<g id="node14" class="node">
<title>\\Controleur_Admin</title>
<polygon fill="none" stroke="#000000" points="304.6393,-214 183.4037,-214 183.4037,-178 304.6393,-178 304.6393,-214"/>
<text text-anchor="middle" x="244.0215" y="-192.7" font-family="Courier,monospace" font-size="11.00" fill="#000000">Controleur_Admin</text>
</g>
<!-- \\Controleur_Admin&#45;&gt;\\Controleur -->
<g id="edge6" class="edge">
<title>\\Controleur_Admin&#45;&gt;\\Controleur</title>
<path fill="none" stroke="#000000" d="M192.4135,-177.8944C184.854,-175.0338 177.1981,-172.0201 170.0107,-169 147.1512,-159.3946 122.234,-147.6317 101.6283,-137.5393"/>
<polygon fill="none" stroke="#000000" points="103.0041,-134.3154 92.4871,-133.0336 99.9093,-140.5941 103.0041,-134.3154"/>
</g>
<!-- \\Controleur_Login -->
<g id="node15" class="node">
<title>\\Controleur_Login</title>
<polygon fill="none" stroke="#000000" points="304.6393,-160 183.4037,-160 183.4037,-124 304.6393,-124 304.6393,-160"/>
<text text-anchor="middle" x="244.0215" y="-138.7" font-family="Courier,monospace" font-size="11.00" fill="#000000">Controleur_Login</text>
</g>
<!-- \\Controleur_Login&#45;&gt;\\Controleur -->
<g id="edge7" class="edge">
<title>\\Controleur_Login&#45;&gt;\\Controleur</title>
<path fill="none" stroke="#000000" d="M183.3027,-133.2339C159.0541,-129.733 131.437,-125.7459 108.2246,-122.3946"/>
<polygon fill="none" stroke="#000000" points="108.6316,-118.9172 98.234,-120.9523 107.6313,-125.8454 108.6316,-118.9172"/>
</g>
<!-- \\Controleur_Bouteille -->
<g id="node16" class="node">
<title>\\Controleur_Bouteille</title>
<polygon fill="none" stroke="#000000" points="318.043,-106 170,-106 170,-70 318.043,-70 318.043,-106"/>
<text text-anchor="middle" x="244.0215" y="-84.7" font-family="Courier,monospace" font-size="11.00" fill="#000000">Controleur_Bouteille</text>
</g>
<!-- \\Controleur_Bouteille&#45;&gt;\\Controleur -->
<g id="edge8" class="edge">
<title>\\Controleur_Bouteille&#45;&gt;\\Controleur</title>
<path fill="none" stroke="#000000" d="M169.8392,-98.7099C149.1791,-101.6926 127.2028,-104.8654 108.1866,-107.6108"/>
<polygon fill="none" stroke="#000000" points="107.6426,-104.153 98.2453,-109.0461 108.6429,-111.0812 107.6426,-104.153"/>
</g>
<!-- \\Controleur_Cellier -->
<g id="node17" class="node">
<title>\\Controleur_Cellier</title>
<polygon fill="none" stroke="#000000" points="311.3409,-52 176.702,-52 176.702,-16 311.3409,-16 311.3409,-52"/>
<text text-anchor="middle" x="244.0215" y="-30.7" font-family="Courier,monospace" font-size="11.00" fill="#000000">Controleur_Cellier</text>
</g>
<!-- \\Controleur_Cellier&#45;&gt;\\Controleur -->
<g id="edge9" class="edge">
<title>\\Controleur_Cellier&#45;&gt;\\Controleur</title>
<path fill="none" stroke="#000000" d="M192.4135,-52.1056C184.854,-54.9662 177.1981,-57.9799 170.0107,-61 147.1512,-70.6054 122.234,-82.3683 101.6283,-92.4607"/>
<polygon fill="none" stroke="#000000" points="99.9093,-89.4059 92.4871,-96.9664 103.0041,-95.6846 99.9093,-89.4059"/>
</g>
</g>
</svg>
