<?xml version="1.0" encoding="UTF-8" standalone="no"?>
<!DOCTYPE svg PUBLIC "-//W3C//DTD SVG 1.1//EN"
 "http://www.w3.org/Graphics/SVG/1.1/DTD/svg11.dtd">
<!-- Generated by graphviz version 2.40.1 (20161225.0304)
 -->
<!-- Title: G Pages: 1 -->
<svg width="335pt" height="743pt"
 viewBox="0.00 0.00 335.43 743.00" xmlns="http://www.w3.org/2000/svg" xmlns:xlink="http://www.w3.org/1999/xlink">
<g id="graph0" class="graph" transform="scale(1 1) rotate(0) translate(4 739)">
<title>G</title>
<polygon fill="#ffffff" stroke="transparent" points="-4,4 -4,-739 331.4312,-739 331.4312,4 -4,4"/>
<g id="clust1" class="cluster">
<title>cluster_Global</title>
<path fill="none" stroke="#c0c0c0" d="M20,-8C20,-8 307.4312,-8 307.4312,-8 313.4312,-8 319.4312,-14 319.4312,-20 319.4312,-20 319.4312,-715 319.4312,-715 319.4312,-721 313.4312,-727 307.4312,-727 307.4312,-727 20,-727 20,-727 14,-727 8,-721 8,-715 8,-715 8,-20 8,-20 8,-14 14,-8 20,-8"/>
<text text-anchor="middle" x="163.7156" y="-714.2" font-family="Times,serif" font-size="11.00" fill="#c0c0c0">Global</text>
</g>
<!-- \\Usager -->
<g id="node1" class="node">
<title>\\Usager</title>
<polygon fill="none" stroke="#000000" points="268.3288,-700 213.1131,-700 213.1131,-664 268.3288,-664 268.3288,-700"/>
<text text-anchor="middle" x="240.7209" y="-678.7" font-family="Courier,monospace" font-size="11.00" fill="#000000">Usager</text>
</g>
<!-- \\Modele -->
<g id="node2" class="node">
<title>\\Modele</title>
<polygon fill="none" stroke="#000000" points="98.0161,-484 15.9946,-484 15.9946,-448 98.0161,-448 98.0161,-484"/>
<text text-anchor="start" x="24" y="-468.2" font-family="Courier,monospace" font-size="11.00" fill="#000000">«abstract»</text>
<text text-anchor="start" x="37.2021" y="-457.2" font-family="Courier,monospace" font-size="11.00" fill="#000000">Modele</text>
</g>
<!-- \\BouteilleSaq -->
<g id="node3" class="node">
<title>\\BouteilleSaq</title>
<polygon fill="none" stroke="#000000" points="288.4341,-646 193.0078,-646 193.0078,-610 288.4341,-610 288.4341,-646"/>
<text text-anchor="middle" x="240.7209" y="-624.7" font-family="Courier,monospace" font-size="11.00" fill="#000000">BouteilleSaq</text>
</g>
<!-- \\Bouteille -->
<g id="node4" class="node">
<title>\\Bouteille</title>
<polygon fill="none" stroke="#000000" points="278.6317,-322 202.8102,-322 202.8102,-286 278.6317,-286 278.6317,-322"/>
<text text-anchor="middle" x="240.7209" y="-300.7" font-family="Courier,monospace" font-size="11.00" fill="#000000">Bouteille</text>
</g>
<!-- \\Controleur -->
<g id="node13" class="node">
<title>\\Controleur</title>
<polygon fill="none" stroke="#000000" points="98.0161,-187 15.9946,-187 15.9946,-151 98.0161,-151 98.0161,-187"/>
<text text-anchor="start" x="24" y="-171.2" font-family="Courier,monospace" font-size="11.00" fill="#000000">«abstract»</text>
<text text-anchor="start" x="24" y="-160.2" font-family="Courier,monospace" font-size="11.00" fill="#000000">Controleur</text>
</g>
<!-- \\Bouteille&#45;&gt;\\Controleur -->
<g id="edge1" class="edge">
<title>\\Bouteille&#45;&gt;\\Controleur</title>
<path fill="none" stroke="#000000" d="M202.6939,-292.6366C191.7144,-288.5329 180.0072,-283.3197 170.0107,-277 134.1515,-254.3301 99.9477,-219.0739 78.7496,-195.0568"/>
<polygon fill="none" stroke="#000000" points="81.277,-192.6293 72.0756,-187.3772 75.9934,-197.2211 81.277,-192.6293"/>
</g>
<!-- \\Modele_Usager -->
<g id="node5" class="node">
<title>\\Modele_Usager</title>
<polygon fill="none" stroke="#000000" points="291.5351,-430 189.9068,-430 189.9068,-394 291.5351,-394 291.5351,-430"/>
<text text-anchor="middle" x="240.7209" y="-408.7" font-family="Courier,monospace" font-size="11.00" fill="#000000">Modele_Usager</text>
</g>
<!-- \\Modele_Usager&#45;&gt;\\Modele -->
<g id="edge2" class="edge">
<title>\\Modele_Usager&#45;&gt;\\Modele</title>
<path fill="none" stroke="#000000" d="M189.5459,-427.042C164.0514,-434.5357 133.3174,-443.5694 107.8662,-451.0503"/>
<polygon fill="none" stroke="#000000" points="106.6417,-447.7621 98.0346,-453.9402 108.6158,-454.478 106.6417,-447.7621"/>
</g>
<!-- \\Modele_BouteilleSaq -->
<g id="node6" class="node">
<title>\\Modele_BouteilleSaq</title>
<polygon fill="none" stroke="#000000" points="311.642,-376 169.7999,-376 169.7999,-340 311.642,-340 311.642,-376"/>
<text text-anchor="middle" x="240.7209" y="-354.7" font-family="Courier,monospace" font-size="11.00" fill="#000000">Modele_BouteilleSaq</text>
</g>
<!-- \\Modele_BouteilleSaq&#45;&gt;\\Modele -->
<g id="edge3" class="edge">
<title>\\Modele_BouteilleSaq&#45;&gt;\\Modele</title>
<path fill="none" stroke="#000000" d="M188.6668,-376.1069C182.2705,-378.8456 175.9133,-381.8264 170.0107,-385 140.0365,-401.1162 108.8024,-424.049 86.7876,-441.4018"/>
<polygon fill="none" stroke="#000000" points="84.4593,-438.7819 78.8235,-447.7534 88.8239,-444.2546 84.4593,-438.7819"/>
</g>
<!-- \\Modele_Cellier -->
<g id="node7" class="node">
<title>\\Modele_Cellier</title>
<polygon fill="none" stroke="#000000" points="295.1368,-592 186.3051,-592 186.3051,-556 295.1368,-556 295.1368,-592"/>
<text text-anchor="middle" x="240.7209" y="-570.7" font-family="Courier,monospace" font-size="11.00" fill="#000000">Modele_Cellier</text>
</g>
<!-- \\Modele_Cellier&#45;&gt;\\Modele -->
<g id="edge4" class="edge">
<title>\\Modele_Cellier&#45;&gt;\\Modele</title>
<path fill="none" stroke="#000000" d="M188.6668,-555.8931C182.2705,-553.1544 175.9133,-550.1736 170.0107,-547 140.0365,-530.8838 108.8024,-507.951 86.7876,-490.5982"/>
<polygon fill="none" stroke="#000000" points="88.8239,-487.7454 78.8235,-484.2466 84.4593,-493.2181 88.8239,-487.7454"/>
</g>
<!-- \\Modele_Bouteille -->
<g id="node8" class="node">
<title>\\Modele_Bouteille</title>
<polygon fill="none" stroke="#000000" points="301.3387,-538 180.1032,-538 180.1032,-502 301.3387,-502 301.3387,-538"/>
<text text-anchor="middle" x="240.7209" y="-516.7" font-family="Courier,monospace" font-size="11.00" fill="#000000">Modele_Bouteille</text>
</g>
<!-- \\Modele_Bouteille&#45;&gt;\\Modele -->
<g id="edge5" class="edge">
<title>\\Modele_Bouteille&#45;&gt;\\Modele</title>
<path fill="none" stroke="#000000" d="M180.0564,-502.1687C156.6583,-495.2912 130.1961,-487.5131 107.8228,-480.9369"/>
<polygon fill="none" stroke="#000000" points="108.7632,-477.5653 98.182,-478.1032 106.7891,-484.2812 108.7632,-477.5653"/>
</g>
<!-- \\Cellier -->
<g id="node9" class="node">
<title>\\Cellier</title>
<polygon fill="none" stroke="#000000" points="271.9288,-214 209.5131,-214 209.5131,-178 271.9288,-178 271.9288,-214"/>
<text text-anchor="middle" x="240.7209" y="-192.7" font-family="Courier,monospace" font-size="11.00" fill="#000000">Cellier</text>
</g>
<!-- \\Cellier&#45;&gt;\\Controleur -->
<g id="edge6" class="edge">
<title>\\Cellier&#45;&gt;\\Controleur</title>
<path fill="none" stroke="#000000" d="M209.5561,-191.4198C181.8435,-187.347 140.7908,-181.3136 108.2512,-176.5314"/>
<polygon fill="none" stroke="#000000" points="108.4159,-173.0181 98.0132,-175.0268 107.398,-179.9437 108.4159,-173.0181"/>
</g>
<!-- \\DBFactory -->
<g id="node10" class="node">
<title>\\DBFactory</title>
<polygon fill="none" stroke="#000000" points="278.6317,-268 202.8102,-268 202.8102,-232 278.6317,-232 278.6317,-268"/>
<text text-anchor="middle" x="240.7209" y="-246.7" font-family="Courier,monospace" font-size="11.00" fill="#000000">DBFactory</text>
</g>
<!-- \\Modele_Type -->
<g id="node11" class="node">
<title>\\Modele_Type</title>
<polygon fill="none" stroke="#000000" points="284.8336,-484 196.6083,-484 196.6083,-448 284.8336,-448 284.8336,-484"/>
<text text-anchor="middle" x="240.7209" y="-462.7" font-family="Courier,monospace" font-size="11.00" fill="#000000">Modele_Type</text>
</g>
<!-- \\Modele_Type&#45;&gt;\\Modele -->
<g id="edge7" class="edge">
<title>\\Modele_Type&#45;&gt;\\Modele</title>
<path fill="none" stroke="#000000" d="M196.2485,-466C169.7885,-466 136.1048,-466 108.4949,-466"/>
<polygon fill="none" stroke="#000000" points="108.2383,-462.5001 98.2383,-466 108.2383,-469.5001 108.2383,-462.5001"/>
</g>
<!-- \\Login -->
<g id="node12" class="node">
<title>\\Login</title>
<polygon fill="none" stroke="#000000" points="267.7209,-52 213.7209,-52 213.7209,-16 267.7209,-16 267.7209,-52"/>
<text text-anchor="middle" x="240.7209" y="-30.7" font-family="Courier,monospace" font-size="11.00" fill="#000000">Login</text>
</g>
<!-- \\Login&#45;&gt;\\Controleur -->
<g id="edge8" class="edge">
<title>\\Login&#45;&gt;\\Controleur</title>
<path fill="none" stroke="#000000" d="M213.6809,-41.518C199.9823,-46.007 183.4504,-52.5036 170.0107,-61 134.1515,-83.6699 99.9477,-118.9261 78.7496,-142.9432"/>
<polygon fill="none" stroke="#000000" points="75.9934,-140.7789 72.0756,-150.6228 81.277,-145.3707 75.9934,-140.7789"/>
</g>
<!-- \\Routeur -->
<g id="node14" class="node">
<title>\\Routeur</title>
<polygon fill="none" stroke="#000000" points="271.9288,-106 209.5131,-106 209.5131,-70 271.9288,-70 271.9288,-106"/>
<text text-anchor="middle" x="240.7209" y="-84.7" font-family="Courier,monospace" font-size="11.00" fill="#000000">Routeur</text>
</g>
<!-- \\Admin -->
<g id="node15" class="node">
<title>\\Admin</title>
<polygon fill="none" stroke="#000000" points="267.7209,-160 213.7209,-160 213.7209,-124 267.7209,-124 267.7209,-160"/>
<text text-anchor="middle" x="240.7209" y="-138.7" font-family="Courier,monospace" font-size="11.00" fill="#000000">Admin</text>
</g>
<!-- \\Admin&#45;&gt;\\Controleur -->
<g id="edge9" class="edge">
<title>\\Admin&#45;&gt;\\Controleur</title>
<path fill="none" stroke="#000000" d="M213.6131,-145.9839C186.0245,-150.0385 142.5812,-156.4232 108.4422,-161.4405"/>
<polygon fill="none" stroke="#000000" points="107.5587,-158.0327 98.174,-162.9496 108.5766,-164.9583 107.5587,-158.0327"/>
</g>
</g>
</svg>
