<?xml version="1.0" standalone="no"?>
<!DOCTYPE svg PUBLIC "-//W3C//DTD SVG 1.1//EN"
"http://www.w3.org/Graphics/SVG/1.1/DTD/svg11.dtd">

<svg width="667" height="439" view_box="0 0 667 439"
xmlns="http://www.w3.org/2000/svg"
xmlns:link="http://www.w3.org/1999/xlink">\n\n<desc>Généré par Mocodo 2.3.7 le Wed, 06 Mar 2019 03:54:09</desc>

<rect id="frame" x="0" y="0" width="667" height="439" fill="#f7f7f7" stroke="none" stroke-width="0"/>

<!-- Association VENDANGÉ À [1N] -->
<line x1="478" y1="60" x2="340" y2="60" stroke="#de77ae" stroke-width="2"/>
<text x="421" y="77.0" fill="#4d9221" font-family="Verdana" font-size="12">0,N</text>
<line x1="340" y1="187" x2="340" y2="60" stroke="#de77ae" stroke-width="2"/>
<text x="345.0" y="128" fill="#4d9221" font-family="Verdana" font-size="12">0,1</text>
<g id="association-VENDANGÉ À [1N]">
	<path d="M 390 35 a 14 14 90 0 1 14 14 V 60 h -128 V 49 a 14 14 90 0 1 14 -14" fill="#f1b6da" stroke="#f1b6da" stroke-width="0"/>
	<path d="M 404 60.0 v 11 a 14 14 90 0 1 -14 14 H 290 a 14 14 90 0 1 -14 -14 V 60.0 H 128" fill="#fde0ef" stroke="#fde0ef" stroke-width="0"/>
	<rect x="276" y="35" width="128" height="50" fill="none" rx="14" stroke="#de77ae" stroke-width="2"/>
	<line x1="276" y1="60" x2="404" y2="60" stroke="#de77ae" stroke-width="1"/>
	<text x="283" y="52.7" fill="#000000" font-family="Verdana" font-size="12">VENDANGÉ À [1N]</text>
</g>

<!-- Association CONTIENT [NM] -->
<line x1="340" y1="187" x2="177" y2="60" stroke="#de77ae" stroke-width="2"/>
<text x="273" y="166.995267505" fill="#4d9221" font-family="Verdana" font-size="12">0,N</text>
<line x1="43" y1="60" x2="177" y2="60" stroke="#de77ae" stroke-width="2"/>
<text x="79" y="77.0" fill="#4d9221" font-family="Verdana" font-size="12">0,N</text>
<g id="association-CONTIENT [NM]">
	<path d="M 230 9 a 14 14 90 0 1 14 14 V 34 h -134 V 23 a 14 14 90 0 1 14 -14" fill="#f1b6da" stroke="#f1b6da" stroke-width="0"/>
	<path d="M 244 34.0 v 63 a 14 14 90 0 1 -14 14 H 124 a 14 14 90 0 1 -14 -14 V 34.0 H 134" fill="#fde0ef" stroke="#fde0ef" stroke-width="0"/>
	<rect x="110" y="9" width="134" height="102" fill="none" rx="14" stroke="#de77ae" stroke-width="2"/>
	<line x1="110" y1="34" x2="244" y2="34" stroke="#de77ae" stroke-width="1"/>
	<text x="127" y="26.7" fill="#000000" font-family="Verdana" font-size="12">CONTIENT [NM]</text>
	<text x="117" y="51.7" fill="#000000" font-family="Verdana" font-size="12">quantité</text>
	<text x="117" y="68.8" fill="#000000" font-family="Verdana" font-size="12">date d’achat</text>
	<text x="117" y="85.8" fill="#000000" font-family="Verdana" font-size="12">date de peremption</text>
	<text x="117" y="102.8" fill="#000000" font-family="Verdana" font-size="12">note</text>
</g>

<!-- Association VENDANGÉ À. [1N] -->
<line x1="599" y1="187" x2="478" y2="187" stroke="#de77ae" stroke-width="2"/>
<text x="549" y="204.0" fill="#4d9221" font-family="Verdana" font-size="12">0,N</text>
<line x1="340" y1="187" x2="478" y2="187" stroke="#de77ae" stroke-width="2"/>
<text x="385" y="179.0" fill="#4d9221" font-family="Verdana" font-size="12">0,1</text>
<g id="association-VENDANGÉ À. [1N]">
	<path d="M 530 162 a 14 14 90 0 1 14 14 V 187 h -132 V 176 a 14 14 90 0 1 14 -14" fill="#f1b6da" stroke="#f1b6da" stroke-width="0"/>
	<path d="M 544 187.0 v 11 a 14 14 90 0 1 -14 14 H 426 a 14 14 90 0 1 -14 -14 V 187.0 H 132" fill="#fde0ef" stroke="#fde0ef" stroke-width="0"/>
	<rect x="412" y="162" width="132" height="50" fill="none" rx="14" stroke="#de77ae" stroke-width="2"/>
	<line x1="412" y1="187" x2="544" y2="187" stroke="#de77ae" stroke-width="1"/>
	<text x="419" y="179.7" fill="#000000" font-family="Verdana" font-size="12">VENDANGÉ À. [1N]</text>
</g>

<!-- Association FAIT [1N] -->
<line x1="478" y1="388" x2="478" y2="296" stroke="#de77ae" stroke-width="2"/>
<text x="483.0" y="338" fill="#4d9221" font-family="Verdana" font-size="12">0,N</text>
<line x1="340" y1="187" x2="478" y2="296" stroke="#de77ae" stroke-width="2"/>
<text x="385" y="216.49913462" fill="#4d9221" font-family="Verdana" font-size="12">0,1</text>
<g id="association-FAIT [1N]">
	<path d="M 501 271 a 14 14 90 0 1 14 14 V 296 h -74 V 285 a 14 14 90 0 1 14 -14" fill="#f1b6da" stroke="#f1b6da" stroke-width="0"/>
	<path d="M 515 296.0 v 11 a 14 14 90 0 1 -14 14 H 455 a 14 14 90 0 1 -14 -14 V 296.0 H 74" fill="#fde0ef" stroke="#fde0ef" stroke-width="0"/>
	<rect x="441" y="271" width="74" height="50" fill="none" rx="14" stroke="#de77ae" stroke-width="2"/>
	<line x1="441" y1="296" x2="515" y2="296" stroke="#de77ae" stroke-width="1"/>
	<text x="448" y="288.7" fill="#000000" font-family="Verdana" font-size="12">FAIT [1N]</text>
</g>

<!-- Association CONSTITUE [1N] -->
<line x1="599" y1="187" x2="599" y2="60" stroke="#de77ae" stroke-width="2"/>
<text x="604.0" y="145" fill="#4d9221" font-family="Verdana" font-size="12">0,N</text>
<line x1="478" y1="60" x2="599" y2="60" stroke="#de77ae" stroke-width="2"/>
<text x="513" y="77.0" fill="#4d9221" font-family="Verdana" font-size="12">1,1</text>
<g id="association-CONSTITUE [1N]">
	<path d="M 644 35 a 14 14 90 0 1 14 14 V 60 h -118 V 49 a 14 14 90 0 1 14 -14" fill="#f1b6da" stroke="#f1b6da" stroke-width="0"/>
	<path d="M 658 60.0 v 11 a 14 14 90 0 1 -14 14 H 554 a 14 14 90 0 1 -14 -14 V 60.0 H 118" fill="#fde0ef" stroke="#fde0ef" stroke-width="0"/>
	<rect x="540" y="35" width="118" height="50" fill="none" rx="14" stroke="#de77ae" stroke-width="2"/>
	<line x1="540" y1="60" x2="658" y2="60" stroke="#de77ae" stroke-width="1"/>
	<text x="547" y="52.7" fill="#000000" font-family="Verdana" font-size="12">CONSTITUE [1N]</text>
</g>

<!-- Association VENDANGÉ EN [1N] -->
<line x1="177" y1="388" x2="177" y2="296" stroke="#de77ae" stroke-width="2"/>
<text x="182.0" y="346" fill="#4d9221" font-family="Verdana" font-size="12">0,N</text>
<line x1="340" y1="187" x2="177" y2="296" stroke="#de77ae" stroke-width="2"/>
<text x="274" y="240.872195128" fill="#4d9221" font-family="Verdana" font-size="12">0,1</text>
<g id="association-VENDANGÉ EN [1N]">
	<path d="M 231 271 a 14 14 90 0 1 14 14 V 296 h -136 V 285 a 14 14 90 0 1 14 -14" fill="#f1b6da" stroke="#f1b6da" stroke-width="0"/>
	<path d="M 245 296.0 v 11 a 14 14 90 0 1 -14 14 H 123 a 14 14 90 0 1 -14 -14 V 296.0 H 136" fill="#fde0ef" stroke="#fde0ef" stroke-width="0"/>
	<rect x="109" y="271" width="136" height="50" fill="none" rx="14" stroke="#de77ae" stroke-width="2"/>
	<line x1="109" y1="296" x2="245" y2="296" stroke="#de77ae" stroke-width="1"/>
	<text x="116" y="288.7" fill="#000000" font-family="Verdana" font-size="12">VENDANGÉ EN [1N]</text>
</g>

<!-- Association AJOUTE [1N] -->
<line x1="43" y1="296" x2="177" y2="187" stroke="#de77ae" stroke-width="2"/>
<text x="82" y="279.29567853" fill="#4d9221" font-family="Verdana" font-size="12">0,N</text>
<line x1="340" y1="187" x2="177" y2="187" stroke="#de77ae" stroke-width="2"/>
<text x="274" y="204.0" fill="#4d9221" font-family="Verdana" font-size="12">0,1</text>
<g id="association-AJOUTE [1N]">
	<path d="M 230 136 a 14 14 90 0 1 14 14 V 161 h -134 V 150 a 14 14 90 0 1 14 -14" fill="#f1b6da" stroke="#f1b6da" stroke-width="0"/>
	<path d="M 244 161.0 v 63 a 14 14 90 0 1 -14 14 H 124 a 14 14 90 0 1 -14 -14 V 161.0 H 134" fill="#fde0ef" stroke="#fde0ef" stroke-width="0"/>
	<rect x="110" y="136" width="134" height="102" fill="none" rx="14" stroke="#de77ae" stroke-width="2"/>
	<line x1="110" y1="161" x2="244" y2="161" stroke="#de77ae" stroke-width="1"/>
	<text x="137" y="153.7" fill="#000000" font-family="Verdana" font-size="12">AJOUTE [1N]</text>
	<text x="117" y="178.7" fill="#000000" font-family="Verdana" font-size="12">quantité</text>
	<text x="117" y="195.8" fill="#000000" font-family="Verdana" font-size="12">date d’achat</text>
	<text x="117" y="212.8" fill="#000000" font-family="Verdana" font-size="12">date de peremption</text>
	<text x="117" y="229.8" fill="#000000" font-family="Verdana" font-size="12">note</text>
</g>

<!-- Association EST UN [1N] -->
<line x1="340" y1="388" x2="340" y2="296" stroke="#de77ae" stroke-width="2"/>
<text x="345.0" y="346" fill="#4d9221" font-family="Verdana" font-size="12">0,N</text>
<line x1="340" y1="187" x2="340" y2="296" stroke="#de77ae" stroke-width="2"/>
<text x="345.0" y="255" fill="#4d9221" font-family="Verdana" font-size="12">0,1</text>
<g id="association-EST UN [1N]">
	<path d="M 372 271 a 14 14 90 0 1 14 14 V 296 h -92 V 285 a 14 14 90 0 1 14 -14" fill="#f1b6da" stroke="#f1b6da" stroke-width="0"/>
	<path d="M 386 296.0 v 11 a 14 14 90 0 1 -14 14 H 308 a 14 14 90 0 1 -14 -14 V 296.0 H 92" fill="#fde0ef" stroke="#fde0ef" stroke-width="0"/>
	<rect x="294" y="271" width="92" height="50" fill="none" rx="14" stroke="#de77ae" stroke-width="2"/>
	<line x1="294" y1="296" x2="386" y2="296" stroke="#de77ae" stroke-width="1"/>
	<text x="301" y="288.7" fill="#000000" font-family="Verdana" font-size="12">EST UN [1N]</text>
</g>

<!-- Association A [NM] -->
<line x1="43" y1="60" x2="43" y2="187" stroke="#de77ae" stroke-width="2"/>
<text x="48.0" y="111" fill="#4d9221" font-family="Verdana" font-size="12">0,N</text>
<line x1="43" y1="296" x2="43" y2="187" stroke="#de77ae" stroke-width="2"/>
<text x="16.0" y="229" fill="#4d9221" font-family="Verdana" font-size="12">0,N</text>
<g id="association-A [NM]">
	<path d="M 58 162 a 14 14 90 0 1 14 14 V 187 h -58 V 176 a 14 14 90 0 1 14 -14" fill="#f1b6da" stroke="#f1b6da" stroke-width="0"/>
	<path d="M 72 187.0 v 11 a 14 14 90 0 1 -14 14 H 28 a 14 14 90 0 1 -14 -14 V 187.0 H 58" fill="#fde0ef" stroke="#fde0ef" stroke-width="0"/>
	<rect x="14" y="162" width="58" height="50" fill="none" rx="14" stroke="#de77ae" stroke-width="2"/>
	<line x1="14" y1="187" x2="72" y2="187" stroke="#de77ae" stroke-width="1"/>
	<text x="21" y="179.7" fill="#000000" font-family="Verdana" font-size="12">A [NM]</text>
	<text x="21" y="204.8" fill="#000000" font-family="Verdana" font-size="12">rôle</text>
</g>

<!-- Entity MILLESIME -->
<g id="entity-MILLESIME">
	<g id="frame-MILLESIME">
		<rect x="138" y="354" width="78" height="25" fill="#b8e186" stroke="#b8e186" stroke-width="0"/>
		<rect x="138" y="379.0" width="78" height="43" fill="#e6f5d0" stroke="#e6f5d0" stroke-width="0"/>
		<rect x="138" y="354" width="78" height="68" fill="none" stroke="#7fbc41" stroke-width="2"/>
		<line x1="138" y1="379" x2="216" y2="379" stroke="#7fbc41" stroke-width="1"/>
	</g>
	<text x="143" y="371.7" fill="#000000" font-family="Verdana" font-size="12">MILLESIME</text>
	<text x="143" y="396.8" fill="#000000" font-family="Verdana" font-size="12">id</text>
	<line x1="143" y1="399" x2="155" y2="399" stroke="#000000" stroke-width="1"/>
	<text x="143" y="413.8" fill="#000000" font-family="Verdana" font-size="12">libellé</text>
</g>

<!-- Entity USAGER -->
<g id="entity-USAGER">
	<g id="frame-USAGER">
		<rect x="9" y="237" width="68" height="25" fill="#b8e186" stroke="#b8e186" stroke-width="0"/>
		<rect x="9" y="262.0" width="68" height="93" fill="#e6f5d0" stroke="#e6f5d0" stroke-width="0"/>
		<rect x="9" y="237" width="68" height="118" fill="none" stroke="#7fbc41" stroke-width="2"/>
		<line x1="9" y1="262" x2="77" y2="262" stroke="#7fbc41" stroke-width="1"/>
	</g>
	<text x="17" y="254.7" fill="#000000" font-family="Verdana" font-size="12">USAGER</text>
	<text x="14" y="279.7" fill="#000000" font-family="Verdana" font-size="12">id</text>
	<line x1="14" y1="282" x2="26" y2="282" stroke="#000000" stroke-width="1"/>
	<text x="14" y="296.8" fill="#000000" font-family="Verdana" font-size="12">estAdmin</text>
	<text x="14" y="313.8" fill="#000000" font-family="Verdana" font-size="12">nom</text>
	<text x="14" y="330.8" fill="#000000" font-family="Verdana" font-size="12">courriel</text>
	<text x="14" y="347.8" fill="#000000" font-family="Verdana" font-size="12">hash</text>
</g>

<!-- Entity FORMAT -->
<g id="entity-FORMAT">
	<g id="frame-FORMAT">
		<rect x="447" y="346" width="62" height="25" fill="#b8e186" stroke="#b8e186" stroke-width="0"/>
		<rect x="447" y="371.0" width="62" height="59" fill="#e6f5d0" stroke="#e6f5d0" stroke-width="0"/>
		<rect x="447" y="346" width="62" height="84" fill="none" stroke="#7fbc41" stroke-width="2"/>
		<line x1="447" y1="371" x2="509" y2="371" stroke="#7fbc41" stroke-width="1"/>
	</g>
	<text x="452" y="363.7" fill="#000000" font-family="Verdana" font-size="12">FORMAT</text>
	<text x="452" y="388.8" fill="#000000" font-family="Verdana" font-size="12">id</text>
	<line x1="452" y1="391" x2="464" y2="391" stroke="#000000" stroke-width="1"/>
	<text x="452" y="405.8" fill="#000000" font-family="Verdana" font-size="12">quantité</text>
	<text x="452" y="422.8" fill="#000000" font-family="Verdana" font-size="12">unité</text>
</g>

<!-- Entity COULEUR -->
<g id="entity-COULEUR">
	<g id="frame-COULEUR">
		<rect x="305" y="354" width="70" height="25" fill="#b8e186" stroke="#b8e186" stroke-width="0"/>
		<rect x="305" y="379.0" width="70" height="43" fill="#e6f5d0" stroke="#e6f5d0" stroke-width="0"/>
		<rect x="305" y="354" width="70" height="68" fill="none" stroke="#7fbc41" stroke-width="2"/>
		<line x1="305" y1="379" x2="375" y2="379" stroke="#7fbc41" stroke-width="1"/>
	</g>
	<text x="310" y="371.7" fill="#000000" font-family="Verdana" font-size="12">COULEUR</text>
	<text x="310" y="396.8" fill="#000000" font-family="Verdana" font-size="12">id</text>
	<line x1="310" y1="399" x2="322" y2="399" stroke="#000000" stroke-width="1"/>
	<text x="310" y="413.8" fill="#000000" font-family="Verdana" font-size="12">libellé</text>
</g>

<!-- Entity PAYS -->
<g id="entity-PAYS">
	<g id="frame-PAYS">
		<rect x="576" y="153" width="46" height="25" fill="#b8e186" stroke="#b8e186" stroke-width="0"/>
		<rect x="576" y="178.0" width="46" height="43" fill="#e6f5d0" stroke="#e6f5d0" stroke-width="0"/>
		<rect x="576" y="153" width="46" height="68" fill="none" stroke="#7fbc41" stroke-width="2"/>
		<line x1="576" y1="178" x2="622" y2="178" stroke="#7fbc41" stroke-width="1"/>
	</g>
	<text x="583" y="170.7" fill="#000000" font-family="Verdana" font-size="12">PAYS</text>
	<text x="581" y="195.8" fill="#000000" font-family="Verdana" font-size="12">id</text>
	<line x1="581" y1="198" x2="593" y2="198" stroke="#000000" stroke-width="1"/>
	<text x="581" y="212.8" fill="#000000" font-family="Verdana" font-size="12">libellé</text>
</g>

<!-- Entity REGION -->
<g id="entity-REGION">
	<g id="frame-REGION">
		<rect x="448" y="26" width="60" height="25" fill="#b8e186" stroke="#b8e186" stroke-width="0"/>
		<rect x="448" y="51.0" width="60" height="43" fill="#e6f5d0" stroke="#e6f5d0" stroke-width="0"/>
		<rect x="448" y="26" width="60" height="68" fill="none" stroke="#7fbc41" stroke-width="2"/>
		<line x1="448" y1="51" x2="508" y2="51" stroke="#7fbc41" stroke-width="1"/>
	</g>
	<text x="453" y="43.7" fill="#000000" font-family="Verdana" font-size="12">REGION</text>
	<text x="453" y="68.8" fill="#000000" font-family="Verdana" font-size="12">id</text>
	<line x1="453" y1="71" x2="465" y2="71" stroke="#000000" stroke-width="1"/>
	<text x="453" y="85.8" fill="#000000" font-family="Verdana" font-size="12">libellé</text>
</g>

<!-- Entity BOUTEILLE -->
<g id="entity-BOUTEILLE">
	<g id="frame-BOUTEILLE">
		<rect x="300" y="136" width="80" height="25" fill="#b8e186" stroke="#b8e186" stroke-width="0"/>
		<rect x="300" y="161.0" width="80" height="77" fill="#e6f5d0" stroke="#e6f5d0" stroke-width="0"/>
		<rect x="300" y="136" width="80" height="102" fill="none" stroke="#7fbc41" stroke-width="2"/>
		<line x1="300" y1="161" x2="380" y2="161" stroke="#7fbc41" stroke-width="1"/>
	</g>
	<text x="305" y="153.7" fill="#000000" font-family="Verdana" font-size="12">BOUTEILLE</text>
	<text x="305" y="178.7" fill="#000000" font-family="Verdana" font-size="12">id</text>
	<line x1="305" y1="181" x2="317" y2="181" stroke="#000000" stroke-width="1"/>
	<text x="305" y="195.8" fill="#000000" font-family="Verdana" font-size="12">code SAQ</text>
	<text x="305" y="212.8" fill="#000000" font-family="Verdana" font-size="12">prix</text>
	<text x="305" y="229.8" fill="#000000" font-family="Verdana" font-size="12">libellé</text>
</g>

<!-- Entity CELLIER -->
<g id="entity-CELLIER">
	<g id="frame-CELLIER">
		<rect x="12" y="26" width="62" height="25" fill="#b8e186" stroke="#b8e186" stroke-width="0"/>
		<rect x="12" y="51.0" width="62" height="43" fill="#e6f5d0" stroke="#e6f5d0" stroke-width="0"/>
		<rect x="12" y="26" width="62" height="68" fill="none" stroke="#7fbc41" stroke-width="2"/>
		<line x1="12" y1="51" x2="74" y2="51" stroke="#7fbc41" stroke-width="1"/>
	</g>
	<text x="17" y="43.7" fill="#000000" font-family="Verdana" font-size="12">CELLIER</text>
	<text x="17" y="68.8" fill="#000000" font-family="Verdana" font-size="12">id</text>
	<line x1="17" y1="71" x2="29" y2="71" stroke="#000000" stroke-width="1"/>
	<text x="17" y="85.8" fill="#000000" font-family="Verdana" font-size="12">nom</text>
</g>
</svg>